<?xml version="1.0" encoding="UTF-8"?>
<svg id="Camada_2" data-name="Camada 2" xmlns="http://www.w3.org/2000/svg" xmlns:xlink="http://www.w3.org/1999/xlink" viewBox="0 0 382.72 539.22">
  <defs>
    <style>
      .cls-1 {
        fill: url(#Gradiente_sem_nome_223);
      }

      .cls-2 {
        fill: #333;
      }

      .cls-3 {
        fill: #313131;
      }

      .cls-4 {
        fill: #262727;
      }

      .cls-5 {
        fill: #2b2c2c;
      }

      .cls-6 {
        fill: #b5aed6;
      }

      .cls-7 {
        fill: #2a2b2b;
      }

      .cls-8 {
        fill: #9f90c5;
      }

      .cls-9 {
        fill: #3e3d8c;
      }

      .cls-10, .cls-11, .cls-12 {
        fill: #fff;
      }

      .cls-13 {
        fill: #272828;
      }

      .cls-14 {
        fill: #303030;
      }

      .cls-15 {
        fill: #2c2c2d;
      }

      .cls-16 {
        fill: #292a2a;
      }

      .cls-17, .cls-18 {
        fill: none;
      }

      .cls-19 {
        fill: #363636;
      }

      .cls-20 {
        fill: #484949;
      }

      .cls-21 {
        fill: url(#Gradiente_sem_nome_234);
      }

      .cls-22 {
        fill: #2a2a2b;
      }

      .cls-23 {
        fill: #323232;
      }

      .cls-24 {
        fill: #1d1d1b;
        opacity: .8;
      }

      .cls-11 {
        stroke: url(#Gradiente_sem_nome_2);
      }

      .cls-11, .cls-12 {
        stroke-width: 3px;
      }

      .cls-11, .cls-12, .cls-18 {
        stroke-miterlimit: 10;
      }

      .cls-12 {
        stroke: url(#Gradiente_sem_nome_2-3);
      }

      .cls-25 {
        fill: url(#Gradiente_sem_nome_2-2);
      }

      .cls-26 {
        fill: url(#Gradiente_sem_nome_2-4);
      }

      .cls-27 {
        fill: #e2ebf1;
      }

      .cls-28 {
        fill: #2f3030;
      }

      .cls-29 {
        fill: #343434;
      }

      .cls-30 {
        fill: url(#Gradiente_sem_nome_228);
      }

      .cls-31 {
        fill: #2e2e2f;
      }

      .cls-32 {
        fill: #2f2f2f;
      }

      .cls-33 {
        fill: #313232;
      }

      .cls-34 {
        fill: #2d307a;
      }

      .cls-18 {
        stroke: #3e3d8c;
        stroke-linecap: round;
        stroke-width: 7px;
      }

      .cls-35 {
        fill: #242426;
      }

      .cls-36 {
        fill: #2d2e2e;
      }

      .cls-37 {
        fill: #353535;
      }

      .cls-38 {
        fill: #4d4d4c;
      }

      .cls-39 {
        fill: #282929;
      }

      .cls-40 {
        clip-path: url(#clippath);
      }

      .cls-41 {
        fill: #e4ac79;
      }

      .cls-42 {
        fill: #2c2d2d;
      }

      .cls-43 {
        fill: #282829;
      }
    </style>
    <clipPath id="clippath">
      <path class="cls-17" d="M132.41,293.48h117.92c25.78,0,47.34,19.84,49.77,45.81,8.31,88.6,16.62,102.37,24.93,190.97.45,4.8-3.28,8.95-8.05,8.95H65.74c-4.76,0-8.5-4.15-8.05-8.95,8.31-88.59,16.62-102.37,24.93-190.96,2.44-25.98,24-45.82,49.78-45.82Z"/>
    </clipPath>
    <linearGradient id="Gradiente_sem_nome_234" data-name="Gradiente sem nome 234" x1="191.36" y1="405.05" x2="191.36" y2="539.22" gradientUnits="userSpaceOnUse">
      <stop offset="0" stop-color="#4a4898"/>
      <stop offset="1" stop-color="#292852"/>
    </linearGradient>
    <linearGradient id="Gradiente_sem_nome_223" data-name="Gradiente sem nome 223" x1="297.91" y1="405.05" x2="297.91" y2="539.22" gradientUnits="userSpaceOnUse">
      <stop offset="0" stop-color="#474593"/>
      <stop offset=".35" stop-color="#454390"/>
      <stop offset=".56" stop-color="#414088"/>
      <stop offset=".74" stop-color="#3b3979"/>
      <stop offset=".89" stop-color="#323065"/>
      <stop offset="1" stop-color="#292852"/>
    </linearGradient>
    <linearGradient id="Gradiente_sem_nome_2" data-name="Gradiente sem nome 2" x1="71.84" y1="115.78" x2="164.25" y2="115.78" gradientUnits="userSpaceOnUse">
      <stop offset="0" stop-color="#414495"/>
      <stop offset="1" stop-color="#6a64ab"/>
    </linearGradient>
    <linearGradient id="Gradiente_sem_nome_2-2" data-name="Gradiente sem nome 2" x1="118.04" y1="84.17" x2="118.04" y2="147.39" xlink:href="#Gradiente_sem_nome_2"/>
    <linearGradient id="Gradiente_sem_nome_2-3" data-name="Gradiente sem nome 2" x1="218.47" x2="310.88" xlink:href="#Gradiente_sem_nome_2"/>
    <linearGradient id="Gradiente_sem_nome_2-4" data-name="Gradiente sem nome 2" x1="264.68" y1="84.17" x2="264.68" y2="147.39" xlink:href="#Gradiente_sem_nome_2"/>
    <linearGradient id="Gradiente_sem_nome_228" data-name="Gradiente sem nome 228" x1="84.02" y1="405.05" x2="84.02" y2="539.22" gradientUnits="userSpaceOnUse">
      <stop offset="0" stop-color="#4a4898"/>
      <stop offset=".34" stop-color="#484695"/>
      <stop offset=".55" stop-color="#44438d"/>
      <stop offset=".72" stop-color="#3e3c7e"/>
      <stop offset=".87" stop-color="#34336a"/>
      <stop offset="1" stop-color="#292852"/>
    </linearGradient>
  </defs>
  <g id="Camada_1-2" data-name="Camada 1">
    <g>
      <path class="cls-10" d="M306.56,405.05H75.16c1.43-28.17,4.14-50.3,6.47-65.75,1.02-6.82,2.15-12.22,5.39-18.53,8.37-16.31,25.2-27.28,44.38-27.28h118.92c19.18,0,36.02,10.97,44.39,27.28,3.23,6.31,4.36,11.71,5.39,18.53,2.32,15.45,5.04,37.58,6.46,65.75Z"/>
      <g class="cls-40">
        <path class="cls-27" d="M303.44,374.93c1.04,10.04,2.08,20.08,3.13,30.11-77.14,0-154.27,0-231.4,0,1.37-10.04,2.75-20.08,4.12-30.11,7.5-8.25,19.31-18.39,34.62-19.5,18.76-1.37,24.46,3.29,52.14,10.65,7.23,1.92,32.21,8.55,58.55,0,22.64-7.35,27.61-11.01,44.23-10.65,15.01.33,26.99,10.89,34.62,19.5Z"/>
      </g>
      <path class="cls-21" d="M300.55,405.05H77.43c.26,69.66.53,64.51.79,134.17h227.08c-1.58-69.66-3.16-64.51-4.75-134.17Z"/>
      <polygon class="cls-1" points="289.25 539.22 331.67 539.22 306.56 405.05 264.15 405.05 289.25 539.22"/>
      <g>
        <ellipse class="cls-4" cx="191.36" cy="297.27" rx="77.46" ry="26.73"/>
        <ellipse class="cls-13" cx="191.36" cy="296.93" rx="76.99" ry="26.56"/>
        <ellipse class="cls-43" cx="191.36" cy="296.6" rx="76.53" ry="26.4"/>
        <ellipse class="cls-39" cx="191.36" cy="296.26" rx="76.06" ry="26.24"/>
        <ellipse class="cls-16" cx="191.36" cy="295.92" rx="75.59" ry="26.08"/>
        <ellipse class="cls-22" cx="191.36" cy="295.59" rx="75.12" ry="25.92"/>
        <ellipse class="cls-7" cx="191.36" cy="295.25" rx="74.66" ry="25.76"/>
        <ellipse class="cls-5" cx="191.36" cy="294.92" rx="74.19" ry="25.6"/>
        <ellipse class="cls-15" cx="191.36" cy="294.58" rx="73.72" ry="25.44"/>
        <ellipse class="cls-42" cx="191.36" cy="294.25" rx="73.25" ry="25.28"/>
        <ellipse class="cls-36" cx="191.36" cy="293.91" rx="72.79" ry="25.11"/>
        <ellipse class="cls-31" cx="191.36" cy="293.58" rx="72.32" ry="24.95"/>
        <ellipse class="cls-32" cx="191.36" cy="293.24" rx="71.85" ry="24.79"/>
        <ellipse class="cls-28" cx="191.36" cy="292.91" rx="71.39" ry="24.63"/>
        <ellipse class="cls-14" cx="191.36" cy="292.57" rx="70.92" ry="24.47"/>
        <ellipse class="cls-3" cx="191.36" cy="292.24" rx="70.45" ry="24.31"/>
        <ellipse class="cls-33" cx="191.36" cy="291.9" rx="69.98" ry="24.15"/>
        <ellipse class="cls-23" cx="191.36" cy="291.57" rx="69.52" ry="23.99"/>
        <ellipse class="cls-2" cx="191.36" cy="291.23" rx="69.05" ry="23.82"/>
        <ellipse class="cls-29" cx="191.36" cy="290.9" rx="68.58" ry="23.66"/>
        <ellipse class="cls-29" cx="191.36" cy="290.56" rx="68.12" ry="23.5"/>
        <ellipse class="cls-37" cx="191.36" cy="290.23" rx="67.65" ry="23.34"/>
      </g>
      <ellipse class="cls-38" cx="191.36" cy="290.23" rx="67.65" ry="23.34"/>
      <path class="cls-19" d="M234.88,240.72v41.14c0,6.18-19.49,11.19-43.52,11.19s-43.52-5.01-43.52-11.19v-41.14h87.04Z"/>
      <path class="cls-24" d="M234.88,240.72v14.97h-87.04v-14.97h87.04Z"/>
      <rect class="cls-34" x="32.59" y="25" width="317.54" height="195.69" rx="15" ry="15"/>
      <path class="cls-35" d="M377.72,88.41v68.86c0,5.69-3.05,10.66-7.59,13.38v55.04c0,4.14-1.68,7.89-4.4,10.6-.51.51-1.05.98-1.63,1.42-1.15.86-2.44,1.56-3.81,2.07-.46.17-.93.31-1.41.44-1.2.31-2.46.47-3.75.47H27.59c-1.29,0-2.55-.16-3.75-.47-.48-.13-.95-.27-1.41-.44-1.37-.51-2.66-1.21-3.81-2.07-.58-.44-1.12-.91-1.63-1.42-2.72-2.71-4.4-6.46-4.4-10.6v-55.03c-4.54-2.72-7.59-7.69-7.59-13.38v-68.86c0-5.69,3.05-10.66,7.59-13.38V20c0-8.29,6.72-15,15-15h327.54c8.28,0,15,6.71,15,15v55.03c4.54,2.72,7.59,7.69,7.59,13.38Z"/>
      <path class="cls-20" d="M27.59,245.69c-1.7,0-3.38-.21-5-.63-.77-.21-1.35-.39-1.89-.59-1.83-.68-3.53-1.61-5.07-2.76-.79-.6-1.51-1.23-2.17-1.89-3.78-3.76-5.86-8.79-5.86-14.13v-52.45c-4.74-3.88-7.59-9.76-7.59-15.96v-68.86c0-6.2,2.85-12.08,7.59-15.96V20C7.59,8.97,16.56,0,27.59,0h327.54c11.03,0,20,8.97,20,20v52.45c4.74,3.88,7.59,9.76,7.59,15.96v68.86c0,6.2-2.85,12.08-7.59,15.96v52.46c0,5.35-2.08,10.37-5.87,14.14-.67.67-1.37,1.28-2.14,1.86-1.56,1.17-3.26,2.09-5.09,2.77-.56.21-1.14.39-1.85.58-1.67.43-3.35.64-5.05.64H27.59Z"/>
      <path class="cls-35" d="M377.72,88.41v68.86c0,5.69-3.05,10.66-7.59,13.38v55.04c0,4.14-1.68,7.89-4.4,10.6-.51.51-1.05.98-1.63,1.42-1.15.86-2.44,1.56-3.81,2.07-.46.17-.93.31-1.41.44-1.2.31-2.46.47-3.75.47H27.59c-1.29,0-2.55-.16-3.75-.47-.48-.13-.95-.27-1.41-.44-1.37-.51-2.66-1.21-3.81-2.07-.58-.44-1.12-.91-1.63-1.42-2.72-2.71-4.4-6.46-4.4-10.6v-55.03c-4.54-2.72-7.59-7.69-7.59-13.38v-68.86c0-5.69,3.05-10.66,7.59-13.38V20c0-8.29,6.72-15,15-15h327.54c8.28,0,15,6.71,15,15v55.03c4.54,2.72,7.59,7.69,7.59,13.38Z"/>
      <path class="cls-35" d="M377.72,88.41v68.86c0,5.69-3.05,10.66-7.59,13.38v55.04c0,4.14-1.68,7.89-4.4,10.6-.51.51-1.05.98-1.63,1.42-1.15.86-2.44,1.56-3.81,2.07-.46.17-.93.31-1.41.44-1.2.31-2.46.47-3.75.47H27.59c-1.29,0-2.55-.16-3.75-.47-.48-.13-.95-.27-1.41-.44-1.37-.51-2.66-1.21-3.81-2.07-.58-.44-1.12-.91-1.63-1.42-2.72-2.71-4.4-6.46-4.4-10.6v-55.03c-4.54-2.72-7.59-7.69-7.59-13.38v-68.86c0-5.69,3.05-10.66,7.59-13.38V20c0-8.29,6.72-15,15-15h327.54c8.28,0,15,6.71,15,15v55.03c4.54,2.72,7.59,7.69,7.59,13.38Z"/>
      <rect class="cls-10" x="32.59" y="25" width="317.54" height="195.69" rx="5" ry="5"/>
      <g>
        <g>
          <g>
            <path class="cls-18" d="M74.95,70.54c4.58-4.03,14.46-11.64,29.27-15.03,16.73-3.84,30.39-.16,36.2,1.78"/>
            <path class="cls-18" d="M242.68,57.52c4.98-1.97,18.27-6.46,34.9-2.9,16.23,3.48,26.38,12.65,30.18,16.45"/>
          </g>
          <g>
            <circle class="cls-11" cx="118.04" cy="115.78" r="44.7"/>
            <g>
              <circle class="cls-25" cx="118.04" cy="115.78" r="31.61"/>
              <g>
                <path class="cls-10" d="M131.69,119.31s-.07-.02-.09-.05l-10-12.5s-.04-.11,0-.15l10-12.5s.06-.05.09-.05h0s.07.02.09.05l10,12.73s.03.11,0,.15l-10,12.27s-.09.04-.09.04Z"/>
                <path class="cls-10" d="M131.69,94.19c3.33,4.24,6.67,8.48,10,12.73-3.33,4.09-6.67,8.18-10,12.27-3.33-4.17-6.67-8.33-10-12.5,3.33-4.17,6.67-8.33,10-12.5M131.69,93.95c-.07,0-.14.03-.19.09l-5,6.25-5,6.25c-.07.09-.07.21,0,.3l5,6.25,5,6.25c.05.06.11.09.19.09,0,0,0,0,0,0,.07,0,.14-.03.19-.09l5-6.14,5-6.14c.07-.09.07-.21,0-.3l-5-6.36-5-6.36c-.05-.06-.11-.09-.19-.09,0,0,0,0,0,0h0Z"/>
              </g>
              <path class="cls-6" d="M107.5,90.7c-2.13,2.67-4.26,5.33-6.4,8,2.13,2.67,4.26,5.33,6.4,8,2.13-2.62,4.26-5.23,6.4-7.85-2.13-2.71-4.26-5.43-6.4-8.14Z"/>
              <path class="cls-8" d="M93.85,111.22c3.77,10.21,13.38,17.14,24.19,17.47,11.04.33,21.22-6.29,25.44-16.57,1.06,2.79,2.35,7.51,1.29,12.93-2.35,11.93-15.13,22.02-28.77,21.05-12.66-.91-24.19-11.21-25.03-22.83-.37-5.04,1.36-9.29,2.88-12.04Z"/>
              <path class="cls-41" d="M118.04,140.34c6.17.01,10.11-4.15,10.51-3.59.47.65-4.16,7.4-10.59,7.36-6.38-.04-10.9-6.76-10.43-7.41.41-.56,4.33,3.63,10.51,3.64Z"/>
            </g>
          </g>
          <g>
            <circle class="cls-12" cx="264.68" cy="115.78" r="44.7"/>
            <g>
              <circle class="cls-26" cx="264.68" cy="115.78" r="31.61"/>
              <g>
                <path class="cls-10" d="M278.32,119.31s-.07-.02-.09-.05l-10-12.5s-.04-.11,0-.15l10-12.5s.06-.05.09-.05h0s.07.02.09.05l10,12.73s.03.11,0,.15l-10,12.27s-.09.04-.09.04Z"/>
                <path class="cls-10" d="M278.33,94.19c3.33,4.24,6.67,8.48,10,12.73-3.33,4.09-6.67,8.18-10,12.27-3.33-4.17-6.67-8.33-10-12.5,3.33-4.17,6.67-8.33,10-12.5M278.33,93.95c-.07,0-.14.03-.19.09l-5,6.25-5,6.25c-.07.09-.07.21,0,.3l5,6.25,5,6.25c.05.06.11.09.19.09,0,0,0,0,0,0,.07,0,.14-.03.19-.09l5-6.14,5-6.14c.07-.09.07-.21,0-.3l-5-6.36-5-6.36c-.05-.06-.11-.09-.19-.09,0,0,0,0,0,0h0Z"/>
              </g>
              <path class="cls-6" d="M254.14,90.7c-2.13,2.67-4.26,5.33-6.4,8,2.13,2.67,4.26,5.33,6.4,8,2.13-2.62,4.26-5.23,6.4-7.85-2.13-2.71-4.26-5.43-6.4-8.14Z"/>
              <path class="cls-8" d="M240.48,111.22c3.77,10.21,13.38,17.14,24.19,17.47,11.04.33,21.22-6.29,25.44-16.57,1.06,2.79,2.35,7.51,1.29,12.93-2.35,11.93-15.13,22.02-28.77,21.05-12.66-.91-24.19-11.21-25.03-22.83-.37-5.04,1.36-9.29,2.88-12.04Z"/>
              <path class="cls-41" d="M264.68,140.34c6.17.01,10.11-4.15,10.51-3.59.47.65-4.16,7.4-10.59,7.36-6.38-.04-10.9-6.76-10.43-7.41.41-.56,4.33,3.63,10.51,3.64Z"/>
            </g>
          </g>
        </g>
        <path class="cls-9" d="M223.54,184.96c-18.2,14.32-46.12,14.19-64.25-.17-.69-.54-.81-1.55-.27-2.24.46-.59,1.26-.76,1.91-.47,4.93,2.19,9.91,3.99,15,5.21,10.12,2.44,20.72,2.36,30.83-.13,5.07-1.26,10.03-3.07,14.95-5.26,1.9-.85,3.49,1.77,1.84,3.06h0Z"/>
      </g>
      <polygon class="cls-30" points="92.88 539.22 49.47 539.22 75.16 405.05 118.57 405.05 92.88 539.22"/>
    </g>
  </g>
</svg>