<?xml version="1.0" encoding="UTF-8"?>
<svg id="Camada_2" data-name="Camada 2" xmlns="http://www.w3.org/2000/svg" xmlns:xlink="http://www.w3.org/1999/xlink" viewBox="0 0 421.48 1014.26">
  <defs>
    <style>
      .cls-1 {
        fill: #333;
      }

      .cls-2 {
        fill: #313131;
      }

      .cls-3 {
        fill: #262727;
      }

      .cls-4 {
        fill: url(#Gradiente_sem_nome_145);
      }

      .cls-5 {
        fill: url(#Gradiente_sem_nome_152);
      }

      .cls-6 {
        fill: #2b2c2c;
      }

      .cls-7 {
        fill: #b5aed6;
      }

      .cls-8 {
        fill: #2a2b2b;
      }

      .cls-9 {
        fill: #9f90c5;
      }

      .cls-10 {
        fill: #3e3d8c;
      }

      .cls-11, .cls-12, .cls-13 {
        fill: #fff;
      }

      .cls-14 {
        fill: #272828;
      }

      .cls-15 {
        fill: #303030;
      }

      .cls-16 {
        fill: #2c2c2d;
      }

      .cls-17 {
        fill: #292a2a;
      }

      .cls-18, .cls-19, .cls-20 {
        fill: none;
      }

      .cls-21 {
        fill: #363636;
      }

      .cls-22 {
        fill: #484949;
      }

      .cls-23 {
        fill: #2a2a2b;
      }

      .cls-24 {
        fill: #323232;
      }

      .cls-25 {
        fill: #1d1d1b;
        opacity: .8;
      }

      .cls-12 {
        stroke: url(#Gradiente_sem_nome_2);
      }

      .cls-12, .cls-13 {
        stroke-width: 3px;
      }

      .cls-12, .cls-13, .cls-19, .cls-20 {
        stroke-miterlimit: 10;
      }

      .cls-13 {
        stroke: url(#Gradiente_sem_nome_2-3);
      }

      .cls-26 {
        fill: url(#Gradiente_sem_nome_2-2);
      }

      .cls-27 {
        fill: url(#Gradiente_sem_nome_2-4);
      }

      .cls-28 {
        fill: #e2ebf1;
      }

      .cls-29 {
        fill: #2f3030;
      }

      .cls-30 {
        fill: #343434;
      }

      .cls-31 {
        fill: #2e2e2f;
      }

      .cls-32 {
        fill: #2f2f2f;
      }

      .cls-33 {
        fill: #313232;
      }

      .cls-34 {
        fill: #2d307a;
      }

      .cls-35 {
        fill: url(#Gradiente_sem_nome_200);
      }

      .cls-19 {
        stroke: #3e3d8c;
        stroke-width: 7px;
      }

      .cls-19, .cls-20 {
        stroke-linecap: round;
      }

      .cls-36 {
        fill: #242426;
      }

      .cls-37 {
        fill: #2d2e2e;
      }

      .cls-38 {
        fill: #353535;
      }

      .cls-20 {
        stroke: #242426;
        stroke-width: 2px;
      }

      .cls-39 {
        fill: url(#Gradiente_sem_nome_53);
      }

      .cls-39, .cls-40 {
        opacity: .5;
      }

      .cls-41 {
        fill: #4d4d4c;
      }

      .cls-42 {
        fill: #282929;
      }

      .cls-43 {
        fill: #000100;
      }

      .cls-44 {
        clip-path: url(#clippath);
      }

      .cls-45 {
        fill: #e4ac79;
      }

      .cls-46 {
        fill: #2c2d2d;
      }

      .cls-47 {
        fill: #282829;
      }
    </style>
    <clipPath id="clippath">
      <path class="cls-18" d="M149.8,293.48h117.92c25.78,0,47.34,19.84,49.77,45.81,8.31,88.6,16.62,361.55,24.93,450.14.45,4.8-3.28,8.95-8.05,8.95H83.13c-4.76,0-8.5-4.15-8.05-8.95,8.31-88.59,16.62-361.54,24.93-450.13,2.44-25.98,24-45.82,49.78-45.82Z"/>
    </clipPath>
    <linearGradient id="Gradiente_sem_nome_145" data-name="Gradiente sem nome 145" x1="208.75" y1="405.05" x2="208.75" y2="798.39" gradientUnits="userSpaceOnUse">
      <stop offset="0" stop-color="#4a4898"/>
      <stop offset=".28" stop-color="#484694"/>
      <stop offset=".5" stop-color="#43418a"/>
      <stop offset=".7" stop-color="#3b3a79"/>
      <stop offset=".9" stop-color="#302f62"/>
      <stop offset="1" stop-color="#292852"/>
    </linearGradient>
    <linearGradient id="Gradiente_sem_nome_200" data-name="Gradiente sem nome 200" x1="315.3" y1="405.05" x2="315.3" y2="798.39" gradientUnits="userSpaceOnUse">
      <stop offset="0" stop-color="#474593"/>
      <stop offset="1" stop-color="#292852"/>
    </linearGradient>
    <linearGradient id="Gradiente_sem_nome_2" data-name="Gradiente sem nome 2" x1="89.23" y1="115.78" x2="181.64" y2="115.78" gradientUnits="userSpaceOnUse">
      <stop offset="0" stop-color="#414495"/>
      <stop offset="1" stop-color="#6a64ab"/>
    </linearGradient>
    <linearGradient id="Gradiente_sem_nome_2-2" data-name="Gradiente sem nome 2" x1="135.44" y1="84.17" x2="135.44" y2="147.39" xlink:href="#Gradiente_sem_nome_2"/>
    <linearGradient id="Gradiente_sem_nome_2-3" data-name="Gradiente sem nome 2" x1="235.87" x2="328.27" xlink:href="#Gradiente_sem_nome_2"/>
    <linearGradient id="Gradiente_sem_nome_2-4" data-name="Gradiente sem nome 2" x1="282.07" y1="84.17" x2="282.07" y2="147.39" xlink:href="#Gradiente_sem_nome_2"/>
    <linearGradient id="Gradiente_sem_nome_152" data-name="Gradiente sem nome 152" x1="101.41" y1="405.05" x2="101.41" y2="798.39" gradientUnits="userSpaceOnUse">
      <stop offset="0" stop-color="#4a4898"/>
      <stop offset="1" stop-color="#292852"/>
    </linearGradient>
    <linearGradient id="Gradiente_sem_nome_53" data-name="Gradiente sem nome 53" x1="210.74" y1="883.97" x2="210.74" y2="844.67" gradientUnits="userSpaceOnUse">
      <stop offset="0" stop-color="#242426" stop-opacity="0"/>
      <stop offset=".55" stop-color="#242426" stop-opacity=".05"/>
      <stop offset=".74" stop-color="#242426" stop-opacity=".23"/>
      <stop offset=".88" stop-color="#242426" stop-opacity=".54"/>
      <stop offset="1" stop-color="#242426" stop-opacity=".98"/>
      <stop offset="1" stop-color="#242426"/>
    </linearGradient>
  </defs>
  <g id="Camada_1-2" data-name="Camada 1">
    <g>
      <path class="cls-11" d="M323.95,405.05H92.55c1.43-28.17,4.14-50.3,6.47-65.75,1.02-6.82,2.15-12.22,5.39-18.53,8.37-16.31,25.2-27.28,44.38-27.28h118.92c19.18,0,36.02,10.97,44.39,27.28,3.23,6.31,4.36,11.71,5.39,18.53,2.32,15.45,5.04,37.58,6.46,65.75Z"/>
      <g class="cls-44">
        <path class="cls-28" d="M320.83,374.93c1.04,10.04,2.08,20.08,3.13,30.11-77.14,0-154.27,0-231.4,0,1.37-10.04,2.75-20.08,4.12-30.11,7.5-8.25,19.31-18.39,34.62-19.5,18.76-1.37,24.46,3.29,52.14,10.65,7.23,1.92,32.21,8.55,58.55,0,22.64-7.35,27.61-11.01,44.23-10.65,15.01.33,26.99,10.89,34.62,19.5Z"/>
      </g>
      <path class="cls-4" d="M317.94,405.05H94.82c.26,69.66.53,323.68.79,393.35h227.08c-1.58-69.66-3.16-323.68-4.75-393.35Z"/>
      <polygon class="cls-35" points="306.65 798.39 349.06 798.39 323.96 405.05 281.54 405.05 306.65 798.39"/>
      <g>
        <ellipse class="cls-3" cx="208.75" cy="297.27" rx="77.46" ry="26.73"/>
        <ellipse class="cls-14" cx="208.75" cy="296.93" rx="76.99" ry="26.56"/>
        <ellipse class="cls-47" cx="208.75" cy="296.6" rx="76.53" ry="26.4"/>
        <ellipse class="cls-42" cx="208.75" cy="296.26" rx="76.06" ry="26.24"/>
        <ellipse class="cls-17" cx="208.75" cy="295.92" rx="75.59" ry="26.08"/>
        <ellipse class="cls-23" cx="208.75" cy="295.59" rx="75.12" ry="25.92"/>
        <ellipse class="cls-8" cx="208.75" cy="295.25" rx="74.66" ry="25.76"/>
        <ellipse class="cls-6" cx="208.75" cy="294.92" rx="74.19" ry="25.6"/>
        <ellipse class="cls-16" cx="208.75" cy="294.58" rx="73.72" ry="25.44"/>
        <ellipse class="cls-46" cx="208.75" cy="294.25" rx="73.25" ry="25.28"/>
        <ellipse class="cls-37" cx="208.75" cy="293.91" rx="72.79" ry="25.11"/>
        <ellipse class="cls-31" cx="208.75" cy="293.58" rx="72.32" ry="24.95"/>
        <ellipse class="cls-32" cx="208.75" cy="293.24" rx="71.85" ry="24.79"/>
        <ellipse class="cls-29" cx="208.75" cy="292.91" rx="71.39" ry="24.63"/>
        <ellipse class="cls-15" cx="208.75" cy="292.57" rx="70.92" ry="24.47"/>
        <ellipse class="cls-2" cx="208.75" cy="292.24" rx="70.45" ry="24.31"/>
        <ellipse class="cls-33" cx="208.75" cy="291.9" rx="69.98" ry="24.15"/>
        <ellipse class="cls-24" cx="208.75" cy="291.57" rx="69.52" ry="23.99"/>
        <ellipse class="cls-1" cx="208.75" cy="291.23" rx="69.05" ry="23.82"/>
        <ellipse class="cls-30" cx="208.75" cy="290.9" rx="68.58" ry="23.66"/>
        <ellipse class="cls-30" cx="208.75" cy="290.56" rx="68.12" ry="23.5"/>
        <ellipse class="cls-38" cx="208.75" cy="290.23" rx="67.65" ry="23.34"/>
      </g>
      <ellipse class="cls-41" cx="208.75" cy="290.23" rx="67.65" ry="23.34"/>
      <path class="cls-21" d="M252.27,240.72v41.14c0,6.18-19.49,11.19-43.52,11.19s-43.52-5.01-43.52-11.19v-41.14h87.04Z"/>
      <path class="cls-25" d="M252.27,240.72v14.97h-87.04v-14.97h87.04Z"/>
      <rect class="cls-34" x="49.98" y="25" width="317.54" height="195.69" rx="15" ry="15"/>
      <path class="cls-36" d="M395.11,88.41v68.86c0,5.69-3.05,10.66-7.59,13.38v55.04c0,4.14-1.68,7.89-4.4,10.6-.51.51-1.05.98-1.63,1.42-1.15.86-2.44,1.56-3.81,2.07-.46.17-.93.31-1.41.44-1.2.31-2.46.47-3.75.47H44.98c-1.29,0-2.55-.16-3.75-.47-.48-.13-.95-.27-1.41-.44-1.37-.51-2.66-1.21-3.81-2.07-.58-.44-1.12-.91-1.63-1.42-2.72-2.71-4.4-6.46-4.4-10.6v-55.03c-4.54-2.72-7.59-7.69-7.59-13.38v-68.86c0-5.69,3.05-10.66,7.59-13.38V20c0-8.29,6.72-15,15-15h327.54c8.28,0,15,6.71,15,15v55.03c4.54,2.72,7.59,7.69,7.59,13.38Z"/>
      <path class="cls-22" d="M44.98,245.69c-1.7,0-3.38-.21-5-.63-.77-.21-1.35-.39-1.89-.59-1.83-.68-3.53-1.61-5.07-2.76-.79-.6-1.51-1.23-2.17-1.89-3.78-3.76-5.86-8.79-5.86-14.13v-52.45c-4.74-3.88-7.59-9.76-7.59-15.96v-68.86c0-6.2,2.85-12.08,7.59-15.96V20C24.98,8.97,33.96,0,44.98,0h327.54c11.03,0,20,8.97,20,20v52.45c4.74,3.88,7.59,9.76,7.59,15.96v68.86c0,6.2-2.85,12.08-7.59,15.96v52.46c0,5.35-2.08,10.37-5.87,14.14-.67.67-1.37,1.28-2.14,1.86-1.56,1.17-3.26,2.09-5.09,2.77-.56.21-1.14.39-1.85.58-1.67.43-3.35.64-5.05.64H44.98Z"/>
      <path class="cls-36" d="M395.11,88.41v68.86c0,5.69-3.05,10.66-7.59,13.38v55.04c0,4.14-1.68,7.89-4.4,10.6-.51.51-1.05.98-1.63,1.42-1.15.86-2.44,1.56-3.81,2.07-.46.17-.93.31-1.41.44-1.2.31-2.46.47-3.75.47H44.98c-1.29,0-2.55-.16-3.75-.47-.48-.13-.95-.27-1.41-.44-1.37-.51-2.66-1.21-3.81-2.07-.58-.44-1.12-.91-1.63-1.42-2.72-2.71-4.4-6.46-4.4-10.6v-55.03c-4.54-2.72-7.59-7.69-7.59-13.38v-68.86c0-5.69,3.05-10.66,7.59-13.38V20c0-8.29,6.72-15,15-15h327.54c8.28,0,15,6.71,15,15v55.03c4.54,2.72,7.59,7.69,7.59,13.38Z"/>
      <path class="cls-36" d="M395.11,88.41v68.86c0,5.69-3.05,10.66-7.59,13.38v55.04c0,4.14-1.68,7.89-4.4,10.6-.51.51-1.05.98-1.63,1.42-1.15.86-2.44,1.56-3.81,2.07-.46.17-.93.31-1.41.44-1.2.31-2.46.47-3.75.47H44.98c-1.29,0-2.55-.16-3.75-.47-.48-.13-.95-.27-1.41-.44-1.37-.51-2.66-1.21-3.81-2.07-.58-.44-1.12-.91-1.63-1.42-2.72-2.71-4.4-6.46-4.4-10.6v-55.03c-4.54-2.72-7.59-7.69-7.59-13.38v-68.86c0-5.69,3.05-10.66,7.59-13.38V20c0-8.29,6.72-15,15-15h327.54c8.28,0,15,6.71,15,15v55.03c4.54,2.72,7.59,7.69,7.59,13.38Z"/>
      <rect class="cls-11" x="49.98" y="25" width="317.54" height="195.69" rx="5" ry="5"/>
      <g>
        <g>
          <g>
            <path class="cls-19" d="M92.34,70.54c4.58-4.03,14.46-11.64,29.27-15.03,16.73-3.84,30.39-.16,36.2,1.78"/>
            <path class="cls-19" d="M260.07,57.52c4.98-1.97,18.27-6.46,34.9-2.9,16.23,3.48,26.38,12.65,30.18,16.45"/>
          </g>
          <g>
            <circle class="cls-12" cx="135.44" cy="115.78" r="44.7"/>
            <g>
              <circle class="cls-26" cx="135.44" cy="115.78" r="31.61"/>
              <g>
                <path class="cls-11" d="M149.09,119.31s-.07-.02-.09-.05l-10-12.5s-.04-.11,0-.15l10-12.5s.06-.05.09-.05h0s.07.02.09.05l10,12.73s.03.11,0,.15l-10,12.27s-.09.04-.09.04Z"/>
                <path class="cls-11" d="M149.09,94.19c3.33,4.24,6.67,8.48,10,12.73-3.33,4.09-6.67,8.18-10,12.27-3.33-4.17-6.67-8.33-10-12.5,3.33-4.17,6.67-8.33,10-12.5M149.09,93.95c-.07,0-.14.03-.19.09l-5,6.25-5,6.25c-.07.09-.07.21,0,.3l5,6.25,5,6.25c.05.06.11.09.19.09,0,0,0,0,0,0,.07,0,.14-.03.19-.09l5-6.14,5-6.14c.07-.09.07-.21,0-.3l-5-6.36-5-6.36c-.05-.06-.11-.09-.19-.09,0,0,0,0,0,0h0Z"/>
              </g>
              <path class="cls-7" d="M124.9,90.7c-2.13,2.67-4.26,5.33-6.4,8,2.13,2.67,4.26,5.33,6.4,8,2.13-2.62,4.26-5.23,6.4-7.85-2.13-2.71-4.26-5.43-6.4-8.14Z"/>
              <path class="cls-9" d="M111.24,111.22c3.77,10.21,13.38,17.14,24.19,17.47,11.04.33,21.22-6.29,25.44-16.57,1.06,2.79,2.35,7.51,1.29,12.93-2.35,11.93-15.13,22.02-28.77,21.05-12.66-.91-24.19-11.21-25.03-22.83-.37-5.04,1.36-9.29,2.88-12.04Z"/>
              <path class="cls-45" d="M135.44,140.34c6.17.01,10.11-4.15,10.51-3.59.47.65-4.16,7.4-10.59,7.36-6.38-.04-10.9-6.76-10.43-7.41.41-.56,4.33,3.63,10.51,3.64Z"/>
            </g>
          </g>
          <g>
            <circle class="cls-13" cx="282.07" cy="115.78" r="44.7"/>
            <g>
              <circle class="cls-27" cx="282.07" cy="115.78" r="31.61"/>
              <g>
                <path class="cls-11" d="M295.72,119.31s-.07-.02-.09-.05l-10-12.5s-.04-.11,0-.15l10-12.5s.06-.05.09-.05h0s.07.02.09.05l10,12.73s.03.11,0,.15l-10,12.27s-.09.04-.09.04Z"/>
                <path class="cls-11" d="M295.72,94.19c3.33,4.24,6.67,8.48,10,12.73-3.33,4.09-6.67,8.18-10,12.27-3.33-4.17-6.67-8.33-10-12.5,3.33-4.17,6.67-8.33,10-12.5M295.72,93.95c-.07,0-.14.03-.19.09l-5,6.25-5,6.25c-.07.09-.07.21,0,.3l5,6.25,5,6.25c.05.06.11.09.19.09,0,0,0,0,0,0,.07,0,.14-.03.19-.09l5-6.14,5-6.14c.07-.09.07-.21,0-.3l-5-6.36-5-6.36c-.05-.06-.11-.09-.19-.09,0,0,0,0,0,0h0Z"/>
              </g>
              <path class="cls-7" d="M271.53,90.7c-2.13,2.67-4.26,5.33-6.4,8,2.13,2.67,4.26,5.33,6.4,8,2.13-2.62,4.26-5.23,6.4-7.85-2.13-2.71-4.26-5.43-6.4-8.14Z"/>
              <path class="cls-9" d="M257.87,111.22c3.77,10.21,13.38,17.14,24.19,17.47,11.04.33,21.22-6.29,25.44-16.57,1.06,2.79,2.35,7.51,1.29,12.93-2.35,11.93-15.13,22.02-28.77,21.05-12.66-.91-24.19-11.21-25.03-22.83-.37-5.04,1.36-9.29,2.88-12.04Z"/>
              <path class="cls-45" d="M282.07,140.34c6.17.01,10.11-4.15,10.51-3.59.47.65-4.16,7.4-10.59,7.36-6.38-.04-10.9-6.76-10.43-7.41.41-.56,4.33,3.63,10.51,3.64Z"/>
            </g>
          </g>
        </g>
        <path class="cls-10" d="M240.93,184.96c-18.2,14.32-46.12,14.19-64.25-.17-.69-.54-.81-1.55-.27-2.24.46-.59,1.26-.76,1.91-.47,4.93,2.19,9.91,3.99,15,5.21,10.12,2.44,20.72,2.36,30.83-.13,5.07-1.26,10.03-3.07,14.95-5.26,1.9-.85,3.49,1.77,1.84,3.06h0Z"/>
      </g>
      <polygon class="cls-5" points="110.27 798.39 66.86 798.39 92.55 405.05 135.96 405.05 110.27 798.39"/>
      <g class="cls-40">
        <path class="cls-43" d="M198.65,441.02c-.73,0-1.58-.29-1.83-.95-.3-.79-.27-1.7.08-2.32.23-.41.57-.65,1.04-.74.26-.05.51-.07.74-.07.53,0,1.26.12,1.7.71.4.54.46,1.36.17,2.3-.22.73-1.12,1.06-1.9,1.06Z"/>
        <path class="cls-43" d="M208.73,441.02c-.73,0-1.58-.29-1.83-.95-.3-.79-.27-1.7.08-2.32.23-.41.57-.65,1.04-.74.26-.05.51-.07.74-.07.53,0,1.26.12,1.7.71.4.54.46,1.36.17,2.3-.22.73-1.12,1.06-1.9,1.06Z"/>
        <path class="cls-43" d="M218.81,441.02c-.73,0-1.58-.29-1.83-.95-.3-.79-.27-1.7.08-2.32.23-.41.57-.65,1.04-.74.26-.05.51-.07.74-.07.53,0,1.26.12,1.7.71.4.54.46,1.36.17,2.3-.22.73-1.12,1.06-1.9,1.06Z"/>
        <path class="cls-43" d="M225.84,437.97c-.73,0-1.58-.29-1.83-.95-.3-.79-.27-1.7.08-2.32.23-.41.57-.65,1.04-.74.26-.05.51-.07.74-.07.53,0,1.26.12,1.7.71.4.54.46,1.36.17,2.3-.22.73-1.12,1.06-1.9,1.06Z"/>
        <path class="cls-43" d="M183.53,446.06c-.73,0-1.58-.29-1.83-.95-.3-.79-.27-1.7.08-2.32.23-.41.57-.65,1.04-.74.26-.05.51-.07.74-.07.53,0,1.26.12,1.7.71.4.54.46,1.36.17,2.3-.22.73-1.12,1.06-1.9,1.06Z"/>
        <path class="cls-43" d="M189.63,439.97c-.73,0-1.58-.29-1.83-.95-.3-.79-.27-1.7.08-2.32.23-.41.57-.65,1.04-.74.26-.05.51-.07.74-.07.53,0,1.26.12,1.7.71.4.54.46,1.36.17,2.3-.22.73-1.12,1.06-1.9,1.06Z"/>
        <path class="cls-43" d="M193.61,446.06c-.73,0-1.58-.29-1.83-.95-.3-.79-.27-1.7.08-2.32.23-.41.57-.65,1.04-.74.26-.05.51-.07.74-.07.53,0,1.26.12,1.7.71.4.54.46,1.36.17,2.3-.22.73-1.12,1.06-1.9,1.06Z"/>
        <path class="cls-43" d="M203.69,446.06c-.73,0-1.58-.29-1.83-.95-.3-.79-.27-1.7.08-2.32.23-.41.57-.65,1.04-.74.26-.05.51-.07.74-.07.53,0,1.26.12,1.7.71.4.54.46,1.36.17,2.3-.22.73-1.12,1.06-1.9,1.06Z"/>
        <path class="cls-43" d="M213.77,446.06c-.73,0-1.58-.29-1.83-.95-.3-.79-.27-1.7.08-2.32.23-.41.57-.65,1.04-.74.26-.05.51-.07.74-.07.53,0,1.26.12,1.7.71.4.54.46,1.36.17,2.3-.22.73-1.12,1.06-1.9,1.06Z"/>
        <path class="cls-43" d="M223.85,446.06c-.73,0-1.58-.29-1.83-.95-.3-.79-.27-1.7.08-2.32.23-.41.57-.65,1.04-.74.26-.05.51-.07.74-.07.53,0,1.26.12,1.7.71.4.54.46,1.36.17,2.3-.22.73-1.12,1.06-1.9,1.06Z"/>
        <path class="cls-43" d="M232.91,444.05c-.73,0-1.58-.29-1.83-.95-.3-.79-.27-1.7.08-2.32.23-.41.57-.65,1.04-.74.26-.05.51-.07.74-.07.53,0,1.26.12,1.7.71.4.54.46,1.36.17,2.3-.23.73-1.12,1.06-1.9,1.06Z"/>
        <path class="cls-43" d="M177.51,452.08c-.73,0-1.58-.29-1.83-.95-.3-.79-.27-1.7.08-2.32.23-.41.57-.65,1.04-.74.26-.05.51-.07.74-.07.53,0,1.26.12,1.7.71.4.54.46,1.36.17,2.3-.22.73-1.12,1.06-1.9,1.06Z"/>
        <path class="cls-43" d="M171.46,458.13c-.73,0-1.58-.29-1.83-.95-.3-.79-.27-1.7.08-2.32.23-.41.57-.65,1.04-.74.26-.05.51-.07.74-.07.53,0,1.26.12,1.7.71.4.54.46,1.36.17,2.3-.22.73-1.12,1.06-1.9,1.06Z"/>
        <path class="cls-43" d="M188.57,451.1c-.73,0-1.58-.29-1.83-.95-.3-.79-.27-1.7.08-2.32.23-.41.57-.65,1.04-.74.26-.05.51-.07.74-.07.53,0,1.26.12,1.7.71.4.54.46,1.36.17,2.3-.22.73-1.12,1.06-1.9,1.06Z"/>
        <path class="cls-43" d="M198.65,451.1c-.73,0-1.58-.29-1.83-.95-.3-.79-.27-1.7.08-2.32.23-.41.57-.65,1.04-.74.26-.05.51-.07.74-.07.53,0,1.26.12,1.7.71.4.54.46,1.36.17,2.3-.22.73-1.12,1.06-1.9,1.06Z"/>
        <path class="cls-43" d="M208.73,451.1c-.73,0-1.58-.29-1.83-.95-.3-.79-.27-1.7.08-2.32.23-.41.57-.65,1.04-.74.26-.05.51-.07.74-.07.53,0,1.26.12,1.7.71.4.54.46,1.36.17,2.3-.22.73-1.12,1.06-1.9,1.06Z"/>
        <path class="cls-43" d="M218.81,451.1c-.73,0-1.58-.29-1.83-.95-.3-.79-.27-1.7.08-2.32.23-.41.57-.65,1.04-.74.26-.05.51-.07.74-.07.53,0,1.26.12,1.7.71.4.54.46,1.36.17,2.3-.22.73-1.12,1.06-1.9,1.06Z"/>
        <path class="cls-43" d="M228.89,451.1c-.73,0-1.58-.29-1.83-.95-.3-.79-.27-1.7.08-2.32.23-.41.57-.65,1.04-.74.26-.05.51-.07.74-.07.53,0,1.26.12,1.7.71.4.54.46,1.36.17,2.3-.22.73-1.12,1.06-1.9,1.06Z"/>
        <path class="cls-43" d="M239.22,450.12c-.73,0-1.58-.29-1.83-.95-.3-.79-.27-1.7.08-2.32.23-.41.57-.65,1.04-.74.26-.05.51-.07.74-.07.53,0,1.26.12,1.7.71.4.54.46,1.36.17,2.3-.23.73-1.12,1.06-1.9,1.06Z"/>
        <path class="cls-43" d="M183.53,456.14c-.73,0-1.58-.29-1.83-.95-.3-.79-.27-1.7.08-2.32.23-.41.57-.65,1.04-.74.26-.05.51-.07.74-.07.53,0,1.26.12,1.7.71.4.54.46,1.36.17,2.3-.22.73-1.12,1.06-1.9,1.06Z"/>
        <path class="cls-43" d="M193.61,456.14c-.73,0-1.58-.29-1.83-.95-.3-.79-.27-1.7.08-2.32.23-.41.57-.65,1.04-.74.26-.05.51-.07.74-.07.53,0,1.26.12,1.7.71.4.54.46,1.36.17,2.3-.22.73-1.12,1.06-1.9,1.06Z"/>
        <path class="cls-43" d="M203.69,456.14c-.73,0-1.58-.29-1.83-.95-.3-.79-.27-1.7.08-2.32.23-.41.57-.65,1.04-.74.26-.05.51-.07.74-.07.53,0,1.26.12,1.7.71.4.54.46,1.36.17,2.3-.22.73-1.12,1.06-1.9,1.06Z"/>
        <path class="cls-43" d="M213.77,456.14c-.73,0-1.58-.29-1.83-.95-.3-.79-.27-1.7.08-2.32.23-.41.57-.65,1.04-.74.26-.05.51-.07.74-.07.53,0,1.26.12,1.7.71.4.54.46,1.36.17,2.3-.22.73-1.12,1.06-1.9,1.06Z"/>
        <path class="cls-43" d="M223.85,456.14c-.73,0-1.58-.29-1.83-.95-.3-.79-.27-1.7.08-2.32.23-.41.57-.65,1.04-.74.26-.05.51-.07.74-.07.53,0,1.26.12,1.7.71.4.54.46,1.36.17,2.3-.22.73-1.12,1.06-1.9,1.06Z"/>
        <path class="cls-43" d="M233.93,456.14c-.73,0-1.58-.29-1.83-.95-.3-.79-.27-1.7.08-2.32.23-.41.57-.65,1.04-.74.26-.05.51-.07.74-.07.53,0,1.26.12,1.7.71.4.54.46,1.36.17,2.3-.22.73-1.12,1.06-1.9,1.06Z"/>
        <path class="cls-43" d="M244.97,458.09c-.73,0-1.58-.29-1.83-.95-.3-.79-.27-1.7.08-2.32.23-.41.57-.65,1.04-.74.26-.05.51-.07.74-.07.53,0,1.26.12,1.7.71.4.54.46,1.36.17,2.3-.22.73-1.12,1.06-1.9,1.06Z"/>
        <path class="cls-43" d="M178.49,461.18c-.73,0-1.58-.29-1.83-.95-.3-.79-.27-1.7.08-2.32.23-.41.57-.65,1.04-.74.26-.05.51-.07.74-.07.53,0,1.26.12,1.7.71.4.54.46,1.36.17,2.3-.22.73-1.12,1.06-1.9,1.06Z"/>
        <path class="cls-43" d="M188.57,461.18c-.73,0-1.58-.29-1.83-.95-.3-.79-.27-1.7.08-2.32.23-.41.57-.65,1.04-.74.26-.05.51-.07.74-.07.53,0,1.26.12,1.7.71.4.54.46,1.36.17,2.3-.22.73-1.12,1.06-1.9,1.06Z"/>
        <path class="cls-43" d="M198.65,461.18c-.73,0-1.58-.29-1.83-.95-.3-.79-.27-1.7.08-2.32.23-.41.57-.65,1.04-.74.26-.05.51-.07.74-.07.53,0,1.26.12,1.7.71.4.54.46,1.36.17,2.3-.22.73-1.12,1.06-1.9,1.06Z"/>
        <path class="cls-43" d="M208.73,461.18c-.73,0-1.58-.29-1.83-.95-.3-.79-.27-1.7.08-2.32.23-.41.57-.65,1.04-.74.26-.05.51-.07.74-.07.53,0,1.26.12,1.7.71.4.54.46,1.36.17,2.3-.22.73-1.12,1.06-1.9,1.06Z"/>
        <path class="cls-43" d="M218.81,461.18c-.73,0-1.58-.29-1.83-.95-.3-.79-.27-1.7.08-2.32.23-.41.57-.65,1.04-.74.26-.05.51-.07.74-.07.53,0,1.26.12,1.7.71.4.54.46,1.36.17,2.3-.22.73-1.12,1.06-1.9,1.06Z"/>
        <path class="cls-43" d="M228.89,461.18c-.73,0-1.58-.29-1.83-.95-.3-.79-.27-1.7.08-2.32.23-.41.57-.65,1.04-.74.26-.05.51-.07.74-.07.53,0,1.26.12,1.7.71.4.54.46,1.36.17,2.3-.22.73-1.12,1.06-1.9,1.06Z"/>
        <path class="cls-43" d="M238.97,461.18c-.73,0-1.58-.29-1.83-.95-.3-.79-.27-1.7.08-2.32.23-.41.57-.65,1.04-.74.26-.05.51-.07.74-.07.53,0,1.26.12,1.7.71.4.54.46,1.36.17,2.3-.22.73-1.12,1.06-1.9,1.06Z"/>
        <path class="cls-43" d="M173.45,466.22c-.73,0-1.58-.29-1.83-.95-.3-.79-.27-1.7.08-2.32.23-.41.57-.65,1.04-.74.26-.05.51-.07.74-.07.53,0,1.26.12,1.7.71.4.54.46,1.36.17,2.3-.22.73-1.12,1.06-1.9,1.06Z"/>
        <path class="cls-43" d="M183.53,466.22c-.73,0-1.58-.29-1.83-.95-.3-.79-.27-1.7.08-2.32.23-.41.57-.65,1.04-.74.26-.05.51-.07.74-.07.53,0,1.26.12,1.7.71.4.54.46,1.36.17,2.3-.22.73-1.12,1.06-1.9,1.06Z"/>
        <path class="cls-43" d="M193.61,466.22c-.73,0-1.58-.29-1.83-.95-.3-.79-.27-1.7.08-2.32.23-.41.57-.65,1.04-.74.26-.05.51-.07.74-.07.53,0,1.26.12,1.7.71.4.54.46,1.36.17,2.3-.22.73-1.12,1.06-1.9,1.06Z"/>
        <path class="cls-43" d="M203.69,466.22c-.73,0-1.58-.29-1.83-.95-.3-.79-.27-1.7.08-2.32.23-.41.57-.65,1.04-.74.26-.05.51-.07.74-.07.53,0,1.26.12,1.7.71.4.54.46,1.36.17,2.3-.22.73-1.12,1.06-1.9,1.06Z"/>
        <path class="cls-43" d="M213.77,466.22c-.73,0-1.58-.29-1.83-.95-.3-.79-.27-1.7.08-2.32.23-.41.57-.65,1.04-.74.26-.05.51-.07.74-.07.53,0,1.26.12,1.7.71.4.54.46,1.36.17,2.3-.22.73-1.12,1.06-1.9,1.06Z"/>
        <path class="cls-43" d="M223.85,466.22c-.73,0-1.58-.29-1.83-.95-.3-.79-.27-1.7.08-2.32.23-.41.57-.65,1.04-.74.26-.05.51-.07.74-.07.53,0,1.26.12,1.7.71.4.54.46,1.36.17,2.3-.22.73-1.12,1.06-1.9,1.06Z"/>
        <path class="cls-43" d="M233.93,466.22c-.73,0-1.58-.29-1.83-.95-.3-.79-.27-1.7.08-2.32.23-.41.57-.65,1.04-.74.26-.05.51-.07.74-.07.53,0,1.26.12,1.7.71.4.54.46,1.36.17,2.3-.22.73-1.12,1.06-1.9,1.06Z"/>
        <path class="cls-43" d="M244.01,466.22c-.73,0-1.58-.29-1.83-.95-.3-.79-.27-1.7.08-2.32.23-.41.57-.65,1.04-.74.26-.05.51-.07.74-.07.53,0,1.26.12,1.7.71.4.54.46,1.36.17,2.3-.22.73-1.12,1.06-1.9,1.06Z"/>
        <path class="cls-43" d="M168.41,471.26c-.73,0-1.58-.29-1.83-.95-.3-.79-.27-1.7.08-2.32.23-.41.57-.65,1.04-.74.26-.05.51-.07.74-.07.53,0,1.26.12,1.7.71.4.54.46,1.36.17,2.3-.22.73-1.12,1.06-1.9,1.06Z"/>
        <path class="cls-43" d="M178.49,471.26c-.73,0-1.58-.29-1.83-.95-.3-.79-.27-1.7.08-2.32.23-.41.57-.65,1.04-.74.26-.05.51-.07.74-.07.53,0,1.26.12,1.7.71.4.54.46,1.36.17,2.3-.22.73-1.12,1.06-1.9,1.06Z"/>
        <path class="cls-43" d="M188.57,471.26c-.73,0-1.58-.29-1.83-.95-.3-.79-.27-1.7.08-2.32.23-.41.57-.65,1.04-.74.26-.05.51-.07.74-.07.53,0,1.26.12,1.7.71.4.54.46,1.36.17,2.3-.22.73-1.12,1.06-1.9,1.06Z"/>
        <path class="cls-43" d="M198.65,471.26c-.73,0-1.58-.29-1.83-.95-.3-.79-.27-1.7.08-2.32.23-.41.57-.65,1.04-.74.26-.05.51-.07.74-.07.53,0,1.26.12,1.7.71.4.54.46,1.36.17,2.3-.22.73-1.12,1.06-1.9,1.06Z"/>
        <path class="cls-43" d="M208.73,471.26c-.73,0-1.58-.29-1.83-.95-.3-.79-.27-1.7.08-2.32.23-.41.57-.65,1.04-.74.26-.05.51-.07.74-.07.53,0,1.26.12,1.7.71.4.54.46,1.36.17,2.3-.22.73-1.12,1.06-1.9,1.06Z"/>
        <path class="cls-43" d="M218.81,471.26c-.73,0-1.58-.29-1.83-.95-.3-.79-.27-1.7.08-2.32.23-.41.57-.65,1.04-.74.26-.05.51-.07.74-.07.53,0,1.26.12,1.7.71.4.54.46,1.36.17,2.3-.22.73-1.12,1.06-1.9,1.06Z"/>
        <path class="cls-43" d="M228.89,471.26c-.73,0-1.58-.29-1.83-.95-.3-.79-.27-1.7.08-2.32.23-.41.57-.65,1.04-.74.26-.05.51-.07.74-.07.53,0,1.26.12,1.7.71.4.54.46,1.36.17,2.3-.22.73-1.12,1.06-1.9,1.06Z"/>
        <path class="cls-43" d="M238.97,471.26c-.73,0-1.58-.29-1.83-.95-.3-.79-.27-1.7.08-2.32.23-.41.57-.65,1.04-.74.26-.05.51-.07.74-.07.53,0,1.26.12,1.7.71.4.54.46,1.36.17,2.3-.22.73-1.12,1.06-1.9,1.06Z"/>
        <path class="cls-43" d="M249.05,471.26c-.73,0-1.58-.29-1.83-.95-.3-.79-.27-1.7.08-2.32.23-.41.57-.65,1.04-.74.26-.05.51-.07.74-.07.53,0,1.26.12,1.7.71.4.54.46,1.36.17,2.3-.22.73-1.12,1.06-1.9,1.06Z"/>
        <path class="cls-43" d="M173.45,476.3c-.73,0-1.58-.29-1.83-.95-.3-.79-.27-1.7.08-2.32.23-.41.57-.65,1.04-.74.26-.05.51-.07.74-.07.53,0,1.26.12,1.7.71.4.54.46,1.36.17,2.3-.22.73-1.12,1.06-1.9,1.06Z"/>
        <path class="cls-43" d="M183.53,476.3c-.73,0-1.58-.29-1.83-.95-.3-.79-.27-1.7.08-2.32.23-.41.57-.65,1.04-.74.26-.05.51-.07.74-.07.53,0,1.26.12,1.7.71.4.54.46,1.36.17,2.3-.22.73-1.12,1.06-1.9,1.06Z"/>
        <path class="cls-43" d="M193.61,476.3c-.73,0-1.58-.29-1.83-.95-.3-.79-.27-1.7.08-2.32.23-.41.57-.65,1.04-.74.26-.05.51-.07.74-.07.53,0,1.26.12,1.7.71.4.54.46,1.36.17,2.3-.22.73-1.12,1.06-1.9,1.06Z"/>
        <path class="cls-43" d="M203.69,476.3c-.73,0-1.58-.29-1.83-.95-.3-.79-.27-1.7.08-2.32.23-.41.57-.65,1.04-.74.26-.05.51-.07.74-.07.53,0,1.26.12,1.7.71.4.54.46,1.36.17,2.3-.22.73-1.12,1.06-1.9,1.06Z"/>
        <path class="cls-43" d="M213.77,476.3c-.73,0-1.58-.29-1.83-.95-.3-.79-.27-1.7.08-2.32.23-.41.57-.65,1.04-.74.26-.05.51-.07.74-.07.53,0,1.26.12,1.7.71.4.54.46,1.36.17,2.3-.22.73-1.12,1.06-1.9,1.06Z"/>
        <path class="cls-43" d="M223.85,476.3c-.73,0-1.58-.29-1.83-.95-.3-.79-.27-1.7.08-2.32.23-.41.57-.65,1.04-.74.26-.05.51-.07.74-.07.53,0,1.26.12,1.7.71.4.54.46,1.36.17,2.3-.22.73-1.12,1.06-1.9,1.06Z"/>
        <path class="cls-43" d="M233.93,476.3c-.73,0-1.58-.29-1.83-.95-.3-.79-.27-1.7.08-2.32.23-.41.57-.65,1.04-.74.26-.05.51-.07.74-.07.53,0,1.26.12,1.7.71.4.54.46,1.36.17,2.3-.22.73-1.12,1.06-1.9,1.06Z"/>
        <path class="cls-43" d="M244.01,476.3c-.73,0-1.58-.29-1.83-.95-.3-.79-.27-1.7.08-2.32.23-.41.57-.65,1.04-.74.26-.05.51-.07.74-.07.53,0,1.26.12,1.7.71.4.54.46,1.36.17,2.3-.22.73-1.12,1.06-1.9,1.06Z"/>
        <path class="cls-43" d="M168.41,481.34c-.73,0-1.58-.29-1.83-.95-.3-.79-.27-1.7.08-2.32.23-.41.57-.65,1.04-.74.26-.05.51-.07.74-.07.53,0,1.26.12,1.7.71.4.54.46,1.36.17,2.3-.22.73-1.12,1.06-1.9,1.06Z"/>
        <path class="cls-43" d="M178.49,481.34c-.73,0-1.58-.29-1.83-.95-.3-.79-.27-1.7.08-2.32.23-.41.57-.65,1.04-.74.26-.05.51-.07.74-.07.53,0,1.26.12,1.7.71.4.54.46,1.36.17,2.3-.22.73-1.12,1.06-1.9,1.06Z"/>
        <path class="cls-43" d="M188.57,481.34c-.73,0-1.58-.29-1.83-.95-.3-.79-.27-1.7.08-2.32.23-.41.57-.65,1.04-.74.26-.05.51-.07.74-.07.53,0,1.26.12,1.7.71.4.54.46,1.36.17,2.3-.22.73-1.12,1.06-1.9,1.06Z"/>
        <path class="cls-43" d="M198.65,481.34c-.73,0-1.58-.29-1.83-.95-.3-.79-.27-1.7.08-2.32.23-.41.57-.65,1.04-.74.26-.05.51-.07.74-.07.53,0,1.26.12,1.7.71.4.54.46,1.36.17,2.3-.22.73-1.12,1.06-1.9,1.06Z"/>
        <path class="cls-43" d="M208.73,481.34c-.73,0-1.58-.29-1.83-.95-.3-.79-.27-1.7.08-2.32.23-.41.57-.65,1.04-.74.26-.05.51-.07.74-.07.53,0,1.26.12,1.7.71.4.54.46,1.36.17,2.3-.22.73-1.12,1.06-1.9,1.06Z"/>
        <path class="cls-43" d="M218.81,481.34c-.73,0-1.58-.29-1.83-.95-.3-.79-.27-1.7.08-2.32.23-.41.57-.65,1.04-.74.26-.05.51-.07.74-.07.53,0,1.26.12,1.7.71.4.54.46,1.36.17,2.3-.22.73-1.12,1.06-1.9,1.06Z"/>
        <path class="cls-43" d="M228.89,481.34c-.73,0-1.58-.29-1.83-.95-.3-.79-.27-1.7.08-2.32.23-.41.57-.65,1.04-.74.26-.05.51-.07.74-.07.53,0,1.26.12,1.7.71.4.54.46,1.36.17,2.3-.22.73-1.12,1.06-1.9,1.06Z"/>
        <path class="cls-43" d="M238.97,481.34c-.73,0-1.58-.29-1.83-.95-.3-.79-.27-1.7.08-2.32.23-.41.57-.65,1.04-.74.26-.05.51-.07.74-.07.53,0,1.26.12,1.7.71.4.54.46,1.36.17,2.3-.22.73-1.12,1.06-1.9,1.06Z"/>
        <path class="cls-43" d="M249.05,481.34c-.73,0-1.58-.29-1.83-.95-.3-.79-.27-1.7.08-2.32.23-.41.57-.65,1.04-.74.26-.05.51-.07.74-.07.53,0,1.26.12,1.7.71.4.54.46,1.36.17,2.3-.22.73-1.12,1.06-1.9,1.06Z"/>
        <path class="cls-43" d="M173.45,486.38c-.73,0-1.58-.29-1.83-.95-.3-.79-.27-1.7.08-2.32.23-.41.57-.65,1.04-.74.26-.05.51-.07.74-.07.53,0,1.26.12,1.7.71.4.54.46,1.36.17,2.3-.22.73-1.12,1.06-1.9,1.06Z"/>
        <path class="cls-43" d="M183.53,486.38c-.73,0-1.58-.29-1.83-.95-.3-.79-.27-1.7.08-2.32.23-.41.57-.65,1.04-.74.26-.05.51-.07.74-.07.53,0,1.26.12,1.7.71.4.54.46,1.36.17,2.3-.22.73-1.12,1.06-1.9,1.06Z"/>
        <path class="cls-43" d="M193.61,486.38c-.73,0-1.58-.29-1.83-.95-.3-.79-.27-1.7.08-2.32.23-.41.57-.65,1.04-.74.26-.05.51-.07.74-.07.53,0,1.26.12,1.7.71.4.54.46,1.36.17,2.3-.22.73-1.12,1.06-1.9,1.06Z"/>
        <path class="cls-43" d="M203.69,486.38c-.73,0-1.58-.29-1.83-.95-.3-.79-.27-1.7.08-2.32.23-.41.57-.65,1.04-.74.26-.05.51-.07.74-.07.53,0,1.26.12,1.7.71.4.54.46,1.36.17,2.3-.22.73-1.12,1.06-1.9,1.06Z"/>
        <path class="cls-43" d="M213.77,486.38c-.73,0-1.58-.29-1.83-.95-.3-.79-.27-1.7.08-2.32.23-.41.57-.65,1.04-.74.26-.05.51-.07.74-.07.53,0,1.26.12,1.7.71.4.54.46,1.36.17,2.3-.22.73-1.12,1.06-1.9,1.06Z"/>
        <path class="cls-43" d="M223.85,486.38c-.73,0-1.58-.29-1.83-.95-.3-.79-.27-1.7.08-2.32.23-.41.57-.65,1.04-.74.26-.05.51-.07.74-.07.53,0,1.26.12,1.7.71.4.54.46,1.36.17,2.3-.22.73-1.12,1.06-1.9,1.06Z"/>
        <path class="cls-43" d="M233.93,486.38c-.73,0-1.58-.29-1.83-.95-.3-.79-.27-1.7.08-2.32.23-.41.57-.65,1.04-.74.26-.05.51-.07.74-.07.53,0,1.26.12,1.7.71.4.54.46,1.36.17,2.3-.22.73-1.12,1.06-1.9,1.06Z"/>
        <path class="cls-43" d="M244.01,486.38c-.73,0-1.58-.29-1.83-.95-.3-.79-.27-1.7.08-2.32.23-.41.57-.65,1.04-.74.26-.05.51-.07.74-.07.53,0,1.26.12,1.7.71.4.54.46,1.36.17,2.3-.22.73-1.12,1.06-1.9,1.06Z"/>
        <path class="cls-43" d="M168.41,491.42c-.73,0-1.58-.29-1.83-.95-.3-.79-.27-1.7.08-2.32.23-.41.57-.65,1.04-.74.26-.05.51-.07.74-.07.53,0,1.26.12,1.7.71.4.54.46,1.36.17,2.3-.22.73-1.12,1.06-1.9,1.06Z"/>
        <path class="cls-43" d="M178.49,491.42c-.73,0-1.58-.29-1.83-.95-.3-.79-.27-1.7.08-2.32.23-.41.57-.65,1.04-.74.26-.05.51-.07.74-.07.53,0,1.26.12,1.7.71.4.54.46,1.36.17,2.3-.22.73-1.12,1.06-1.9,1.06Z"/>
        <path class="cls-43" d="M188.57,491.42c-.73,0-1.58-.29-1.83-.95-.3-.79-.27-1.7.08-2.32.23-.41.57-.65,1.04-.74.26-.05.51-.07.74-.07.53,0,1.26.12,1.7.71.4.54.46,1.36.17,2.3-.22.73-1.12,1.06-1.9,1.06Z"/>
        <path class="cls-43" d="M198.65,491.42c-.73,0-1.58-.29-1.83-.95-.3-.79-.27-1.7.08-2.32.23-.41.57-.65,1.04-.74.26-.05.51-.07.74-.07.53,0,1.26.12,1.7.71.4.54.46,1.36.17,2.3-.22.73-1.12,1.06-1.9,1.06Z"/>
        <path class="cls-43" d="M208.73,491.42c-.73,0-1.58-.29-1.83-.95-.3-.79-.27-1.7.08-2.32.23-.41.57-.65,1.04-.74.26-.05.51-.07.74-.07.53,0,1.26.12,1.7.71.4.54.46,1.36.17,2.3-.22.73-1.12,1.06-1.9,1.06Z"/>
        <path class="cls-43" d="M218.81,491.42c-.73,0-1.58-.29-1.83-.95-.3-.79-.27-1.7.08-2.32.23-.41.57-.65,1.04-.74.26-.05.51-.07.74-.07.53,0,1.26.12,1.7.71.4.54.46,1.36.17,2.3-.22.73-1.12,1.06-1.9,1.06Z"/>
        <path class="cls-43" d="M228.89,491.42c-.73,0-1.58-.29-1.83-.95-.3-.79-.27-1.7.08-2.32.23-.41.57-.65,1.04-.74.26-.05.51-.07.74-.07.53,0,1.26.12,1.7.71.4.54.46,1.36.17,2.3-.22.73-1.12,1.06-1.9,1.06Z"/>
        <path class="cls-43" d="M238.97,491.42c-.73,0-1.58-.29-1.83-.95-.3-.79-.27-1.7.08-2.32.23-.41.57-.65,1.04-.74.26-.05.51-.07.74-.07.53,0,1.26.12,1.7.71.4.54.46,1.36.17,2.3-.22.73-1.12,1.06-1.9,1.06Z"/>
        <path class="cls-43" d="M249.05,491.42c-.73,0-1.58-.29-1.83-.95-.3-.79-.27-1.7.08-2.32.23-.41.57-.65,1.04-.74.26-.05.51-.07.74-.07.53,0,1.26.12,1.7.71.4.54.46,1.36.17,2.3-.22.73-1.12,1.06-1.9,1.06Z"/>
        <path class="cls-43" d="M173.45,496.46c-.73,0-1.58-.29-1.83-.95-.3-.79-.27-1.7.08-2.32.23-.41.57-.65,1.04-.74.26-.05.51-.07.74-.07.53,0,1.26.12,1.7.71.4.54.46,1.36.17,2.3-.22.73-1.12,1.06-1.9,1.06Z"/>
        <path class="cls-43" d="M183.53,496.46c-.73,0-1.58-.29-1.83-.95-.3-.79-.27-1.7.08-2.32.23-.41.57-.65,1.04-.74.26-.05.51-.07.74-.07.53,0,1.26.12,1.7.71.4.54.46,1.36.17,2.3-.22.73-1.12,1.06-1.9,1.06Z"/>
        <path class="cls-43" d="M193.61,496.46c-.73,0-1.58-.29-1.83-.95-.3-.79-.27-1.7.08-2.32.23-.41.57-.65,1.04-.74.26-.05.51-.07.74-.07.53,0,1.26.12,1.7.71.4.54.46,1.36.17,2.3-.22.73-1.12,1.06-1.9,1.06Z"/>
        <path class="cls-43" d="M203.69,496.46c-.73,0-1.58-.29-1.83-.95-.3-.79-.27-1.7.08-2.32.23-.41.57-.65,1.04-.74.26-.05.51-.07.74-.07.53,0,1.26.12,1.7.71.4.54.46,1.36.17,2.3-.22.73-1.12,1.06-1.9,1.06Z"/>
        <path class="cls-43" d="M213.77,496.46c-.73,0-1.58-.29-1.83-.95-.3-.79-.27-1.7.08-2.32.23-.41.57-.65,1.04-.74.26-.05.51-.07.74-.07.53,0,1.26.12,1.7.71.4.54.46,1.36.17,2.3-.22.73-1.12,1.06-1.9,1.06Z"/>
        <path class="cls-43" d="M223.85,496.46c-.73,0-1.58-.29-1.83-.95-.3-.79-.27-1.7.08-2.32.23-.41.57-.65,1.04-.74.26-.05.51-.07.74-.07.53,0,1.26.12,1.7.71.4.54.46,1.36.17,2.3-.22.73-1.12,1.06-1.9,1.06Z"/>
        <path class="cls-43" d="M233.93,496.46c-.73,0-1.58-.29-1.83-.95-.3-.79-.27-1.7.08-2.32.23-.41.57-.65,1.04-.74.26-.05.51-.07.74-.07.53,0,1.26.12,1.7.71.4.54.46,1.36.17,2.3-.22.73-1.12,1.06-1.9,1.06Z"/>
        <path class="cls-43" d="M244.01,496.46c-.73,0-1.58-.29-1.83-.95-.3-.79-.27-1.7.08-2.32.23-.41.57-.65,1.04-.74.26-.05.51-.07.74-.07.53,0,1.26.12,1.7.71.4.54.46,1.36.17,2.3-.22.73-1.12,1.06-1.9,1.06Z"/>
        <path class="cls-43" d="M168.41,501.5c-.73,0-1.58-.29-1.83-.95-.3-.79-.27-1.7.08-2.32.23-.41.57-.65,1.04-.74.26-.05.51-.07.74-.07.53,0,1.26.12,1.7.71.4.54.46,1.36.17,2.3-.22.73-1.12,1.06-1.9,1.06Z"/>
        <path class="cls-43" d="M178.49,501.5c-.73,0-1.58-.29-1.83-.95-.3-.79-.27-1.7.08-2.32.23-.41.57-.65,1.04-.74.26-.05.51-.07.74-.07.53,0,1.26.12,1.7.71.4.54.46,1.36.17,2.3-.22.73-1.12,1.06-1.9,1.06Z"/>
        <path class="cls-43" d="M188.57,501.5c-.73,0-1.58-.29-1.83-.95-.3-.79-.27-1.7.08-2.32.23-.41.57-.65,1.04-.74.26-.05.51-.07.74-.07.53,0,1.26.12,1.7.71.4.54.46,1.36.17,2.3-.22.73-1.12,1.06-1.9,1.06Z"/>
        <path class="cls-43" d="M198.65,501.5c-.73,0-1.58-.29-1.83-.95-.3-.79-.27-1.7.08-2.32.23-.41.57-.65,1.04-.74.26-.05.51-.07.74-.07.53,0,1.26.12,1.7.71.4.54.46,1.36.17,2.3-.22.73-1.12,1.06-1.9,1.06Z"/>
        <path class="cls-43" d="M208.73,501.5c-.73,0-1.58-.29-1.83-.95-.3-.79-.27-1.7.08-2.32.23-.41.57-.65,1.04-.74.26-.05.51-.07.74-.07.53,0,1.26.12,1.7.71.4.54.46,1.36.17,2.3-.22.73-1.12,1.06-1.9,1.06Z"/>
        <path class="cls-43" d="M218.81,501.5c-.73,0-1.58-.29-1.83-.95-.3-.79-.27-1.7.08-2.32.23-.41.57-.65,1.04-.74.26-.05.51-.07.74-.07.53,0,1.26.12,1.7.71.4.54.46,1.36.17,2.3-.22.73-1.12,1.06-1.9,1.06Z"/>
        <path class="cls-43" d="M228.89,501.5c-.73,0-1.58-.29-1.83-.95-.3-.79-.27-1.7.08-2.32.23-.41.57-.65,1.04-.74.26-.05.51-.07.74-.07.53,0,1.26.12,1.7.71.4.54.46,1.36.17,2.3-.22.73-1.12,1.06-1.9,1.06Z"/>
        <path class="cls-43" d="M238.97,501.5c-.73,0-1.58-.29-1.83-.95-.3-.79-.27-1.7.08-2.32.23-.41.57-.65,1.04-.74.26-.05.51-.07.74-.07.53,0,1.26.12,1.7.71.4.54.46,1.36.17,2.3-.22.73-1.12,1.06-1.9,1.06Z"/>
        <path class="cls-43" d="M249.05,501.5c-.73,0-1.58-.29-1.83-.95-.3-.79-.27-1.7.08-2.32.23-.41.57-.65,1.04-.74.26-.05.51-.07.74-.07.53,0,1.26.12,1.7.71.4.54.46,1.36.17,2.3-.22.73-1.12,1.06-1.9,1.06Z"/>
        <path class="cls-43" d="M173.45,506.54c-.73,0-1.58-.29-1.83-.95-.3-.79-.27-1.7.08-2.32.23-.41.57-.65,1.04-.74.26-.05.51-.07.74-.07.53,0,1.26.12,1.7.71.4.54.46,1.36.17,2.3-.22.73-1.12,1.06-1.9,1.06Z"/>
        <path class="cls-43" d="M183.53,506.54c-.73,0-1.58-.29-1.83-.95-.3-.79-.27-1.7.08-2.32.23-.41.57-.65,1.04-.74.26-.05.51-.07.74-.07.53,0,1.26.12,1.7.71.4.54.46,1.36.17,2.3-.22.73-1.12,1.06-1.9,1.06Z"/>
        <path class="cls-43" d="M193.61,506.54c-.73,0-1.58-.29-1.83-.95-.3-.79-.27-1.7.08-2.32.23-.41.57-.65,1.04-.74.26-.05.51-.07.74-.07.53,0,1.26.12,1.7.71.4.54.46,1.36.17,2.3-.22.73-1.12,1.06-1.9,1.06Z"/>
        <path class="cls-43" d="M203.69,506.54c-.73,0-1.58-.29-1.83-.95-.3-.79-.27-1.7.08-2.32.23-.41.57-.65,1.04-.74.26-.05.51-.07.74-.07.53,0,1.26.12,1.7.71.4.54.46,1.36.17,2.3-.22.73-1.12,1.06-1.9,1.06Z"/>
        <path class="cls-43" d="M213.77,506.54c-.73,0-1.58-.29-1.83-.95-.3-.79-.27-1.7.08-2.32.23-.41.57-.65,1.04-.74.26-.05.51-.07.74-.07.53,0,1.26.12,1.7.71.4.54.46,1.36.17,2.3-.22.73-1.12,1.06-1.9,1.06Z"/>
        <path class="cls-43" d="M223.85,506.54c-.73,0-1.58-.29-1.83-.95-.3-.79-.27-1.7.08-2.32.23-.41.57-.65,1.04-.74.26-.05.51-.07.74-.07.53,0,1.26.12,1.7.71.4.54.46,1.36.17,2.3-.22.73-1.12,1.06-1.9,1.06Z"/>
        <path class="cls-43" d="M233.93,506.54c-.73,0-1.58-.29-1.83-.95-.3-.79-.27-1.7.08-2.32.23-.41.57-.65,1.04-.74.26-.05.51-.07.74-.07.53,0,1.26.12,1.7.71.4.54.46,1.36.17,2.3-.22.73-1.12,1.06-1.9,1.06Z"/>
        <path class="cls-43" d="M244.01,506.54c-.73,0-1.58-.29-1.83-.95-.3-.79-.27-1.7.08-2.32.23-.41.57-.65,1.04-.74.26-.05.51-.07.74-.07.53,0,1.26.12,1.7.71.4.54.46,1.36.17,2.3-.22.73-1.12,1.06-1.9,1.06Z"/>
        <path class="cls-43" d="M168.41,511.58c-.73,0-1.58-.29-1.83-.95-.3-.79-.27-1.7.08-2.32.23-.41.57-.65,1.04-.74.26-.05.51-.07.74-.07.53,0,1.26.12,1.7.71.4.54.46,1.36.17,2.3-.22.73-1.12,1.06-1.9,1.06Z"/>
        <path class="cls-43" d="M178.49,511.58c-.73,0-1.58-.29-1.83-.95-.3-.79-.27-1.7.08-2.32.23-.41.57-.65,1.04-.74.26-.05.51-.07.74-.07.53,0,1.26.12,1.7.71.4.54.46,1.36.17,2.3-.22.73-1.12,1.06-1.9,1.06Z"/>
        <path class="cls-43" d="M188.57,511.58c-.73,0-1.58-.29-1.83-.95-.3-.79-.27-1.7.08-2.32.23-.41.57-.65,1.04-.74.26-.05.51-.07.74-.07.53,0,1.26.12,1.7.71.4.54.46,1.36.17,2.3-.22.73-1.12,1.06-1.9,1.06Z"/>
        <path class="cls-43" d="M198.65,511.58c-.73,0-1.58-.29-1.83-.95-.3-.79-.27-1.7.08-2.32.23-.41.57-.65,1.04-.74.26-.05.51-.07.74-.07.53,0,1.26.12,1.7.71.4.54.46,1.36.17,2.3-.22.73-1.12,1.06-1.9,1.06Z"/>
        <path class="cls-43" d="M208.73,511.58c-.73,0-1.58-.29-1.83-.95-.3-.79-.27-1.7.08-2.32.23-.41.57-.65,1.04-.74.26-.05.51-.07.74-.07.53,0,1.26.12,1.7.71.4.54.46,1.36.17,2.3-.22.73-1.12,1.06-1.9,1.06Z"/>
        <path class="cls-43" d="M218.81,511.58c-.73,0-1.58-.29-1.83-.95-.3-.79-.27-1.7.08-2.32.23-.41.57-.65,1.04-.74.26-.05.51-.07.74-.07.53,0,1.26.12,1.7.71.4.54.46,1.36.17,2.3-.22.73-1.12,1.06-1.9,1.06Z"/>
        <path class="cls-43" d="M228.89,511.58c-.73,0-1.58-.29-1.83-.95-.3-.79-.27-1.7.08-2.32.23-.41.57-.65,1.04-.74.26-.05.51-.07.74-.07.53,0,1.26.12,1.7.71.4.54.46,1.36.17,2.3-.22.73-1.12,1.06-1.9,1.06Z"/>
        <path class="cls-43" d="M238.97,511.58c-.73,0-1.58-.29-1.83-.95-.3-.79-.27-1.7.08-2.32.23-.41.57-.65,1.04-.74.26-.05.51-.07.74-.07.53,0,1.26.12,1.7.71.4.54.46,1.36.17,2.3-.22.73-1.12,1.06-1.9,1.06Z"/>
        <path class="cls-43" d="M249.05,511.58c-.73,0-1.58-.29-1.83-.95-.3-.79-.27-1.7.08-2.32.23-.41.57-.65,1.04-.74.26-.05.51-.07.74-.07.53,0,1.26.12,1.7.71.4.54.46,1.36.17,2.3-.22.73-1.12,1.06-1.9,1.06Z"/>
        <path class="cls-43" d="M173.45,516.62c-.73,0-1.58-.29-1.83-.95-.3-.79-.27-1.7.08-2.32.23-.41.57-.65,1.04-.74.26-.05.51-.07.74-.07.53,0,1.26.12,1.7.71.4.54.46,1.36.17,2.3-.22.73-1.12,1.06-1.9,1.06Z"/>
        <path class="cls-43" d="M183.53,516.62c-.73,0-1.58-.29-1.83-.95-.3-.79-.27-1.7.08-2.32.23-.41.57-.65,1.04-.74.26-.05.51-.07.74-.07.53,0,1.26.12,1.7.71.4.54.46,1.36.17,2.3-.22.73-1.12,1.06-1.9,1.06Z"/>
        <path class="cls-43" d="M193.61,516.62c-.73,0-1.58-.29-1.83-.95-.3-.79-.27-1.7.08-2.32.23-.41.57-.65,1.04-.74.26-.05.51-.07.74-.07.53,0,1.26.12,1.7.71.4.54.46,1.36.17,2.3-.22.73-1.12,1.06-1.9,1.06Z"/>
        <path class="cls-43" d="M203.69,516.62c-.73,0-1.58-.29-1.83-.95-.3-.79-.27-1.7.08-2.32.23-.41.57-.65,1.04-.74.26-.05.51-.07.74-.07.53,0,1.26.12,1.7.71.4.54.46,1.36.17,2.3-.22.73-1.12,1.06-1.9,1.06Z"/>
        <path class="cls-43" d="M213.77,516.62c-.73,0-1.58-.29-1.83-.95-.3-.79-.27-1.7.08-2.32.23-.41.57-.65,1.04-.74.26-.05.51-.07.74-.07.53,0,1.26.12,1.7.71.4.54.46,1.36.17,2.3-.22.73-1.12,1.06-1.9,1.06Z"/>
        <path class="cls-43" d="M223.85,516.62c-.73,0-1.58-.29-1.83-.95-.3-.79-.27-1.7.08-2.32.23-.41.57-.65,1.04-.74.26-.05.51-.07.74-.07.53,0,1.26.12,1.7.71.4.54.46,1.36.17,2.3-.22.73-1.12,1.06-1.9,1.06Z"/>
        <path class="cls-43" d="M233.93,516.62c-.73,0-1.58-.29-1.83-.95-.3-.79-.27-1.7.08-2.32.23-.41.57-.65,1.04-.74.26-.05.51-.07.74-.07.53,0,1.26.12,1.7.71.4.54.46,1.36.17,2.3-.22.73-1.12,1.06-1.9,1.06Z"/>
        <path class="cls-43" d="M244.01,516.62c-.73,0-1.58-.29-1.83-.95-.3-.79-.27-1.7.08-2.32.23-.41.57-.65,1.04-.74.26-.05.51-.07.74-.07.53,0,1.26.12,1.7.71.4.54.46,1.36.17,2.3-.22.73-1.12,1.06-1.9,1.06Z"/>
        <path class="cls-43" d="M168.41,521.66c-.73,0-1.58-.29-1.83-.95-.3-.79-.27-1.7.08-2.32.23-.41.57-.65,1.04-.74.26-.05.51-.07.74-.07.53,0,1.26.12,1.7.71.4.54.46,1.36.17,2.3-.22.73-1.12,1.06-1.9,1.06Z"/>
        <path class="cls-43" d="M178.49,521.66c-.73,0-1.58-.29-1.83-.95-.3-.79-.27-1.7.08-2.32.23-.41.57-.65,1.04-.74.26-.05.51-.07.74-.07.53,0,1.26.12,1.7.71.4.54.46,1.36.17,2.3-.22.73-1.12,1.06-1.9,1.06Z"/>
        <path class="cls-43" d="M188.57,521.66c-.73,0-1.58-.29-1.83-.95-.3-.79-.27-1.7.08-2.32.23-.41.57-.65,1.04-.74.26-.05.51-.07.74-.07.53,0,1.26.12,1.7.71.4.54.46,1.36.17,2.3-.22.73-1.12,1.06-1.9,1.06Z"/>
        <path class="cls-43" d="M198.65,521.66c-.73,0-1.58-.29-1.83-.95-.3-.79-.27-1.7.08-2.32.23-.41.57-.65,1.04-.74.26-.05.51-.07.74-.07.53,0,1.26.12,1.7.71.4.54.46,1.36.17,2.3-.22.73-1.12,1.06-1.9,1.06Z"/>
        <path class="cls-43" d="M208.73,521.66c-.73,0-1.58-.29-1.83-.95-.3-.79-.27-1.7.08-2.32.23-.41.57-.65,1.04-.74.26-.05.51-.07.74-.07.53,0,1.26.12,1.7.71.4.54.46,1.36.17,2.3-.22.73-1.12,1.06-1.9,1.06Z"/>
        <path class="cls-43" d="M218.81,521.66c-.73,0-1.58-.29-1.83-.95-.3-.79-.27-1.7.08-2.32.23-.41.57-.65,1.04-.74.26-.05.51-.07.74-.07.53,0,1.26.12,1.7.71.4.54.46,1.36.17,2.3-.22.73-1.12,1.06-1.9,1.06Z"/>
        <path class="cls-43" d="M228.89,521.66c-.73,0-1.58-.29-1.83-.95-.3-.79-.27-1.7.08-2.32.23-.41.57-.65,1.04-.74.26-.05.51-.07.74-.07.53,0,1.26.12,1.7.71.4.54.46,1.36.17,2.3-.22.73-1.12,1.06-1.9,1.06Z"/>
        <path class="cls-43" d="M238.97,521.66c-.73,0-1.58-.29-1.83-.95-.3-.79-.27-1.7.08-2.32.23-.41.57-.65,1.04-.74.26-.05.51-.07.74-.07.53,0,1.26.12,1.7.71.4.54.46,1.36.17,2.3-.22.73-1.12,1.06-1.9,1.06Z"/>
        <path class="cls-43" d="M249.05,521.66c-.73,0-1.58-.29-1.83-.95-.3-.79-.27-1.7.08-2.32.23-.41.57-.65,1.04-.74.26-.05.51-.07.74-.07.53,0,1.26.12,1.7.71.4.54.46,1.36.17,2.3-.22.73-1.12,1.06-1.9,1.06Z"/>
        <path class="cls-43" d="M173.45,526.7c-.73,0-1.58-.29-1.83-.95-.3-.79-.27-1.7.08-2.32.23-.41.57-.65,1.04-.74.26-.05.51-.07.74-.07.53,0,1.26.12,1.7.71.4.54.46,1.36.17,2.3-.22.73-1.12,1.06-1.9,1.06Z"/>
        <path class="cls-43" d="M183.53,526.7c-.73,0-1.58-.29-1.83-.95-.3-.79-.27-1.7.08-2.32.23-.41.57-.65,1.04-.74.26-.05.51-.07.74-.07.53,0,1.26.12,1.7.71.4.54.46,1.36.17,2.3-.22.73-1.12,1.06-1.9,1.06Z"/>
        <path class="cls-43" d="M193.61,526.7c-.73,0-1.58-.29-1.83-.95-.3-.79-.27-1.7.08-2.32.23-.41.57-.65,1.04-.74.26-.05.51-.07.74-.07.53,0,1.26.12,1.7.71.4.54.46,1.36.17,2.3-.22.73-1.12,1.06-1.9,1.06Z"/>
        <path class="cls-43" d="M203.69,526.7c-.73,0-1.58-.29-1.83-.95-.3-.79-.27-1.7.08-2.32.23-.41.57-.65,1.04-.74.26-.05.51-.07.74-.07.53,0,1.26.12,1.7.71.4.54.46,1.36.17,2.3-.22.73-1.12,1.06-1.9,1.06Z"/>
        <path class="cls-43" d="M213.77,526.7c-.73,0-1.58-.29-1.83-.95-.3-.79-.27-1.7.08-2.32.23-.41.57-.65,1.04-.74.26-.05.51-.07.74-.07.53,0,1.26.12,1.7.71.4.54.46,1.36.17,2.3-.22.73-1.12,1.06-1.9,1.06Z"/>
        <path class="cls-43" d="M223.85,526.7c-.73,0-1.58-.29-1.83-.95-.3-.79-.27-1.7.08-2.32.23-.41.57-.65,1.04-.74.26-.05.51-.07.74-.07.53,0,1.26.12,1.7.71.4.54.46,1.36.17,2.3-.22.73-1.12,1.06-1.9,1.06Z"/>
        <path class="cls-43" d="M233.93,526.7c-.73,0-1.58-.29-1.83-.95-.3-.79-.27-1.7.08-2.32.23-.41.57-.65,1.04-.74.26-.05.51-.07.74-.07.53,0,1.26.12,1.7.71.4.54.46,1.36.17,2.3-.22.73-1.12,1.06-1.9,1.06Z"/>
        <path class="cls-43" d="M244.01,526.7c-.73,0-1.58-.29-1.83-.95-.3-.79-.27-1.7.08-2.32.23-.41.57-.65,1.04-.74.26-.05.51-.07.74-.07.53,0,1.26.12,1.7.71.4.54.46,1.36.17,2.3-.22.73-1.12,1.06-1.9,1.06Z"/>
        <path class="cls-43" d="M168.41,531.74c-.73,0-1.58-.29-1.83-.95-.3-.79-.27-1.7.08-2.32.23-.41.57-.65,1.04-.74.26-.05.51-.07.74-.07.53,0,1.26.12,1.7.71.4.54.46,1.36.17,2.3-.22.73-1.12,1.06-1.9,1.06Z"/>
        <path class="cls-43" d="M178.49,531.74c-.73,0-1.58-.29-1.83-.95-.3-.79-.27-1.7.08-2.32.23-.41.57-.65,1.04-.74.26-.05.51-.07.74-.07.53,0,1.26.12,1.7.71.4.54.46,1.36.17,2.3-.22.73-1.12,1.06-1.9,1.06Z"/>
        <path class="cls-43" d="M188.57,531.74c-.73,0-1.58-.29-1.83-.95-.3-.79-.27-1.7.08-2.32.23-.41.57-.65,1.04-.74.26-.05.51-.07.74-.07.53,0,1.26.12,1.7.71.4.54.46,1.36.17,2.3-.22.73-1.12,1.06-1.9,1.06Z"/>
        <path class="cls-43" d="M198.65,531.74c-.73,0-1.58-.29-1.83-.95-.3-.79-.27-1.7.08-2.32.23-.41.57-.65,1.04-.74.26-.05.51-.07.74-.07.53,0,1.26.12,1.7.71.4.54.46,1.36.17,2.3-.22.73-1.12,1.06-1.9,1.06Z"/>
        <path class="cls-43" d="M208.73,531.74c-.73,0-1.58-.29-1.83-.95-.3-.79-.27-1.7.08-2.32.23-.41.57-.65,1.04-.74.26-.05.51-.07.74-.07.53,0,1.26.12,1.7.71.4.54.46,1.36.17,2.3-.22.73-1.12,1.06-1.9,1.06Z"/>
        <path class="cls-43" d="M218.81,531.74c-.73,0-1.58-.29-1.83-.95-.3-.79-.27-1.7.08-2.32.23-.41.57-.65,1.04-.74.26-.05.51-.07.74-.07.53,0,1.26.12,1.7.71.4.54.46,1.36.17,2.3-.22.73-1.12,1.06-1.9,1.06Z"/>
        <path class="cls-43" d="M228.89,531.74c-.73,0-1.58-.29-1.83-.95-.3-.79-.27-1.7.08-2.32.23-.41.57-.65,1.04-.74.26-.05.51-.07.74-.07.53,0,1.26.12,1.7.71.4.54.46,1.36.17,2.3-.22.73-1.12,1.06-1.9,1.06Z"/>
        <path class="cls-43" d="M238.97,531.74c-.73,0-1.58-.29-1.83-.95-.3-.79-.27-1.7.08-2.32.23-.41.57-.65,1.04-.74.26-.05.51-.07.74-.07.53,0,1.26.12,1.7.71.4.54.46,1.36.17,2.3-.22.73-1.12,1.06-1.9,1.06Z"/>
        <path class="cls-43" d="M249.05,531.74c-.73,0-1.58-.29-1.83-.95-.3-.79-.27-1.7.08-2.32.23-.41.57-.65,1.04-.74.26-.05.51-.07.74-.07.53,0,1.26.12,1.7.71.4.54.46,1.36.17,2.3-.22.73-1.12,1.06-1.9,1.06Z"/>
        <path class="cls-43" d="M173.45,536.78c-.73,0-1.58-.29-1.83-.95-.3-.79-.27-1.7.08-2.32.23-.41.57-.65,1.04-.74.26-.05.51-.07.74-.07.53,0,1.26.12,1.7.71.4.54.46,1.36.17,2.3-.22.73-1.12,1.06-1.9,1.06Z"/>
        <path class="cls-43" d="M183.53,536.78c-.73,0-1.58-.29-1.83-.95-.3-.79-.27-1.7.08-2.32.23-.41.57-.65,1.04-.74.26-.05.51-.07.74-.07.53,0,1.26.12,1.7.71.4.54.46,1.36.17,2.3-.22.73-1.12,1.06-1.9,1.06Z"/>
        <path class="cls-43" d="M193.61,536.78c-.73,0-1.58-.29-1.83-.95-.3-.79-.27-1.7.08-2.32.23-.41.57-.65,1.04-.74.26-.05.51-.07.74-.07.53,0,1.26.12,1.7.71.4.54.46,1.36.17,2.3-.22.73-1.12,1.06-1.9,1.06Z"/>
        <path class="cls-43" d="M203.69,536.78c-.73,0-1.58-.29-1.83-.95-.3-.79-.27-1.7.08-2.32.23-.41.57-.65,1.04-.74.26-.05.51-.07.74-.07.53,0,1.26.12,1.7.71.4.54.46,1.36.17,2.3-.22.73-1.12,1.06-1.9,1.06Z"/>
        <path class="cls-43" d="M213.77,536.78c-.73,0-1.58-.29-1.83-.95-.3-.79-.27-1.7.08-2.32.23-.41.57-.65,1.04-.74.26-.05.51-.07.74-.07.53,0,1.26.12,1.7.71.4.54.46,1.36.17,2.3-.22.73-1.12,1.06-1.9,1.06Z"/>
        <path class="cls-43" d="M223.85,536.78c-.73,0-1.58-.29-1.83-.95-.3-.79-.27-1.7.08-2.32.23-.41.57-.65,1.04-.74.26-.05.51-.07.74-.07.53,0,1.26.12,1.7.71.4.54.46,1.36.17,2.3-.22.73-1.12,1.06-1.9,1.06Z"/>
        <path class="cls-43" d="M233.93,536.78c-.73,0-1.58-.29-1.83-.95-.3-.79-.27-1.7.08-2.32.23-.41.57-.65,1.04-.74.26-.05.51-.07.74-.07.53,0,1.26.12,1.7.71.4.54.46,1.36.17,2.3-.22.73-1.12,1.06-1.9,1.06Z"/>
        <path class="cls-43" d="M244.01,536.78c-.73,0-1.58-.29-1.83-.95-.3-.79-.27-1.7.08-2.32.23-.41.57-.65,1.04-.74.26-.05.51-.07.74-.07.53,0,1.26.12,1.7.71.4.54.46,1.36.17,2.3-.22.73-1.12,1.06-1.9,1.06Z"/>
        <path class="cls-43" d="M168.41,541.82c-.73,0-1.58-.29-1.83-.95-.3-.79-.27-1.7.08-2.32.23-.41.57-.65,1.04-.74.26-.05.51-.07.74-.07.53,0,1.26.12,1.7.71.4.54.46,1.36.17,2.3-.22.73-1.12,1.06-1.9,1.06Z"/>
        <path class="cls-43" d="M178.49,541.82c-.73,0-1.58-.29-1.83-.95-.3-.79-.27-1.7.08-2.32.23-.41.57-.65,1.04-.74.26-.05.51-.07.74-.07.53,0,1.26.12,1.7.71.4.54.46,1.36.17,2.3-.22.73-1.12,1.06-1.9,1.06Z"/>
        <path class="cls-43" d="M188.57,541.82c-.73,0-1.58-.29-1.83-.95-.3-.79-.27-1.7.08-2.32.23-.41.57-.65,1.04-.74.26-.05.51-.07.74-.07.53,0,1.26.12,1.7.71.4.54.46,1.36.17,2.3-.22.73-1.12,1.06-1.9,1.06Z"/>
        <path class="cls-43" d="M198.65,541.82c-.73,0-1.58-.29-1.83-.95-.3-.79-.27-1.7.08-2.32.23-.41.57-.65,1.04-.74.26-.05.51-.07.74-.07.53,0,1.26.12,1.7.71.4.54.46,1.36.17,2.3-.22.73-1.12,1.06-1.9,1.06Z"/>
        <path class="cls-43" d="M208.73,541.82c-.73,0-1.58-.29-1.83-.95-.3-.79-.27-1.7.08-2.32.23-.41.57-.65,1.04-.74.26-.05.51-.07.74-.07.53,0,1.26.12,1.7.71.4.54.46,1.36.17,2.3-.22.73-1.12,1.06-1.9,1.06Z"/>
        <path class="cls-43" d="M218.81,541.82c-.73,0-1.58-.29-1.83-.95-.3-.79-.27-1.7.08-2.32.23-.41.57-.65,1.04-.74.26-.05.51-.07.74-.07.53,0,1.26.12,1.7.71.4.54.46,1.36.17,2.3-.22.73-1.12,1.06-1.9,1.06Z"/>
        <path class="cls-43" d="M228.89,541.82c-.73,0-1.58-.29-1.83-.95-.3-.79-.27-1.7.08-2.32.23-.41.57-.65,1.04-.74.26-.05.51-.07.74-.07.53,0,1.26.12,1.7.71.4.54.46,1.36.17,2.3-.22.73-1.12,1.06-1.9,1.06Z"/>
        <path class="cls-43" d="M238.97,541.82c-.73,0-1.58-.29-1.83-.95-.3-.79-.27-1.7.08-2.32.23-.41.57-.65,1.04-.74.26-.05.51-.07.74-.07.53,0,1.26.12,1.7.71.4.54.46,1.36.17,2.3-.22.73-1.12,1.06-1.9,1.06Z"/>
        <path class="cls-43" d="M249.05,541.82c-.73,0-1.58-.29-1.83-.95-.3-.79-.27-1.7.08-2.32.23-.41.57-.65,1.04-.74.26-.05.51-.07.74-.07.53,0,1.26.12,1.7.71.4.54.46,1.36.17,2.3-.22.73-1.12,1.06-1.9,1.06Z"/>
        <path class="cls-43" d="M173.45,546.86c-.73,0-1.58-.29-1.83-.95-.3-.79-.27-1.7.08-2.32.23-.41.57-.65,1.04-.74.26-.05.51-.07.74-.07.53,0,1.26.12,1.7.71.4.54.46,1.36.17,2.3-.22.73-1.12,1.06-1.9,1.06Z"/>
        <path class="cls-43" d="M183.53,546.86c-.73,0-1.58-.29-1.83-.95-.3-.79-.27-1.7.08-2.32.23-.41.57-.65,1.04-.74.26-.05.51-.07.74-.07.53,0,1.26.12,1.7.71.4.54.46,1.36.17,2.3-.22.73-1.12,1.06-1.9,1.06Z"/>
        <path class="cls-43" d="M193.61,546.86c-.73,0-1.58-.29-1.83-.95-.3-.79-.27-1.7.08-2.32.23-.41.57-.65,1.04-.74.26-.05.51-.07.74-.07.53,0,1.26.12,1.7.71.4.54.46,1.36.17,2.3-.22.73-1.12,1.06-1.9,1.06Z"/>
        <path class="cls-43" d="M203.69,546.86c-.73,0-1.58-.29-1.83-.95-.3-.79-.27-1.7.08-2.32.23-.41.57-.65,1.04-.74.26-.05.51-.07.74-.07.53,0,1.26.12,1.7.71.4.54.46,1.36.17,2.3-.22.73-1.12,1.06-1.9,1.06Z"/>
        <path class="cls-43" d="M213.77,546.86c-.73,0-1.58-.29-1.83-.95-.3-.79-.27-1.7.08-2.32.23-.41.57-.65,1.04-.74.26-.05.51-.07.74-.07.53,0,1.26.12,1.7.71.4.54.46,1.36.17,2.3-.22.73-1.12,1.06-1.9,1.06Z"/>
        <path class="cls-43" d="M203.69,435.98c-.73,0-1.58-.29-1.83-.95-.3-.79-.27-1.7.08-2.32.23-.41.57-.65,1.04-.74.26-.05.51-.07.74-.07.53,0,1.26.12,1.7.71.4.54.46,1.36.17,2.3-.22.73-1.12,1.06-1.9,1.06Z"/>
        <path class="cls-43" d="M233.93,546.86c-.73,0-1.58-.29-1.83-.95-.3-.79-.27-1.7.08-2.32.23-.41.57-.65,1.04-.74.26-.05.51-.07.74-.07.53,0,1.26.12,1.7.71.4.54.46,1.36.17,2.3-.22.73-1.12,1.06-1.9,1.06Z"/>
        <path class="cls-43" d="M244.01,546.86c-.73,0-1.58-.29-1.83-.95-.3-.79-.27-1.7.08-2.32.23-.41.57-.65,1.04-.74.26-.05.51-.07.74-.07.53,0,1.26.12,1.7.71.4.54.46,1.36.17,2.3-.22.73-1.12,1.06-1.9,1.06Z"/>
        <path class="cls-43" d="M168.41,551.9c-.73,0-1.58-.29-1.83-.95-.3-.79-.27-1.7.08-2.32.23-.41.57-.65,1.04-.74.26-.05.51-.07.74-.07.53,0,1.26.12,1.7.71.4.54.46,1.36.17,2.3-.22.73-1.12,1.06-1.9,1.06Z"/>
        <path class="cls-43" d="M178.49,551.9c-.73,0-1.58-.29-1.83-.95-.3-.79-.27-1.7.08-2.32.23-.41.57-.65,1.04-.74.26-.05.51-.07.74-.07.53,0,1.26.12,1.7.71.4.54.46,1.36.17,2.3-.22.73-1.12,1.06-1.9,1.06Z"/>
        <path class="cls-43" d="M188.57,551.9c-.73,0-1.58-.29-1.83-.95-.3-.79-.27-1.7.08-2.32.23-.41.57-.65,1.04-.74.26-.05.51-.07.74-.07.53,0,1.26.12,1.7.71.4.54.46,1.36.17,2.3-.22.73-1.12,1.06-1.9,1.06Z"/>
        <path class="cls-43" d="M198.65,551.9c-.73,0-1.58-.29-1.83-.95-.3-.79-.27-1.7.08-2.32.23-.41.57-.65,1.04-.74.26-.05.51-.07.74-.07.53,0,1.26.12,1.7.71.4.54.46,1.36.17,2.3-.22.73-1.12,1.06-1.9,1.06Z"/>
        <path class="cls-43" d="M208.73,551.9c-.73,0-1.58-.29-1.83-.95-.3-.79-.27-1.7.08-2.32.23-.41.57-.65,1.04-.74.26-.05.51-.07.74-.07.53,0,1.26.12,1.7.71.4.54.46,1.36.17,2.3-.22.73-1.12,1.06-1.9,1.06Z"/>
        <path class="cls-43" d="M218.81,551.9c-.73,0-1.58-.29-1.83-.95-.3-.79-.27-1.7.08-2.32.23-.41.57-.65,1.04-.74.26-.05.51-.07.74-.07.53,0,1.26.12,1.7.71.4.54.46,1.36.17,2.3-.22.73-1.12,1.06-1.9,1.06Z"/>
        <path class="cls-43" d="M228.89,551.9c-.73,0-1.58-.29-1.83-.95-.3-.79-.27-1.7.08-2.32.23-.41.57-.65,1.04-.74.26-.05.51-.07.74-.07.53,0,1.26.12,1.7.71.4.54.46,1.36.17,2.3-.22.73-1.12,1.06-1.9,1.06Z"/>
        <path class="cls-43" d="M238.97,551.9c-.73,0-1.58-.29-1.83-.95-.3-.79-.27-1.7.08-2.32.23-.41.57-.65,1.04-.74.26-.05.51-.07.74-.07.53,0,1.26.12,1.7.71.4.54.46,1.36.17,2.3-.22.73-1.12,1.06-1.9,1.06Z"/>
        <path class="cls-43" d="M249.05,551.9c-.73,0-1.58-.29-1.83-.95-.3-.79-.27-1.7.08-2.32.23-.41.57-.65,1.04-.74.26-.05.51-.07.74-.07.53,0,1.26.12,1.7.71.4.54.46,1.36.17,2.3-.22.73-1.12,1.06-1.9,1.06Z"/>
        <path class="cls-43" d="M173.45,556.94c-.73,0-1.58-.29-1.83-.95-.3-.79-.27-1.7.08-2.32.23-.41.57-.65,1.04-.74.26-.05.51-.07.74-.07.53,0,1.26.12,1.7.71.4.54.46,1.36.17,2.3-.22.73-1.12,1.06-1.9,1.06Z"/>
        <path class="cls-43" d="M183.53,556.94c-.73,0-1.58-.29-1.83-.95-.3-.79-.27-1.7.08-2.32.23-.41.57-.65,1.04-.74.26-.05.51-.07.74-.07.53,0,1.26.12,1.7.71.4.54.46,1.36.17,2.3-.22.73-1.12,1.06-1.9,1.06Z"/>
        <path class="cls-43" d="M193.61,556.94c-.73,0-1.58-.29-1.83-.95-.3-.79-.27-1.7.08-2.32.23-.41.57-.65,1.04-.74.26-.05.51-.07.74-.07.53,0,1.26.12,1.7.71.4.54.46,1.36.17,2.3-.22.73-1.12,1.06-1.9,1.06Z"/>
        <path class="cls-43" d="M203.69,556.94c-.73,0-1.58-.29-1.83-.95-.3-.79-.27-1.7.08-2.32.23-.41.57-.65,1.04-.74.26-.05.51-.07.74-.07.53,0,1.26.12,1.7.71.4.54.46,1.36.17,2.3-.22.73-1.12,1.06-1.9,1.06Z"/>
        <path class="cls-43" d="M213.77,556.94c-.73,0-1.58-.29-1.83-.95-.3-.79-.27-1.7.08-2.32.23-.41.57-.65,1.04-.74.26-.05.51-.07.74-.07.53,0,1.26.12,1.7.71.4.54.46,1.36.17,2.3-.22.73-1.12,1.06-1.9,1.06Z"/>
        <path class="cls-43" d="M223.85,556.94c-.73,0-1.58-.29-1.83-.95-.3-.79-.27-1.7.08-2.32.23-.41.57-.65,1.04-.74.26-.05.51-.07.74-.07.53,0,1.26.12,1.7.71.4.54.46,1.36.17,2.3-.22.73-1.12,1.06-1.9,1.06Z"/>
        <path class="cls-43" d="M233.93,556.94c-.73,0-1.58-.29-1.83-.95-.3-.79-.27-1.7.08-2.32.23-.41.57-.65,1.04-.74.26-.05.51-.07.74-.07.53,0,1.26.12,1.7.71.4.54.46,1.36.17,2.3-.22.73-1.12,1.06-1.9,1.06Z"/>
        <path class="cls-43" d="M244.01,556.94c-.73,0-1.58-.29-1.83-.95-.3-.79-.27-1.7.08-2.32.23-.41.57-.65,1.04-.74.26-.05.51-.07.74-.07.53,0,1.26.12,1.7.71.4.54.46,1.36.17,2.3-.22.73-1.12,1.06-1.9,1.06Z"/>
        <path class="cls-43" d="M178.49,561.98c-.73,0-1.58-.29-1.83-.95-.3-.79-.27-1.7.08-2.32.23-.41.57-.65,1.04-.74.26-.05.51-.07.74-.07.53,0,1.26.12,1.7.71.4.54.46,1.36.17,2.3-.22.73-1.12,1.06-1.9,1.06Z"/>
        <path class="cls-43" d="M188.57,561.98c-.73,0-1.58-.29-1.83-.95-.3-.79-.27-1.7.08-2.32.23-.41.57-.65,1.04-.74.26-.05.51-.07.74-.07.53,0,1.26.12,1.7.71.4.54.46,1.36.17,2.3-.22.73-1.12,1.06-1.9,1.06Z"/>
        <path class="cls-43" d="M198.65,561.98c-.73,0-1.58-.29-1.83-.95-.3-.79-.27-1.7.08-2.32.23-.41.57-.65,1.04-.74.26-.05.51-.07.74-.07.53,0,1.26.12,1.7.71.4.54.46,1.36.17,2.3-.22.73-1.12,1.06-1.9,1.06Z"/>
        <path class="cls-43" d="M208.73,561.98c-.73,0-1.58-.29-1.83-.95-.3-.79-.27-1.7.08-2.32.23-.41.57-.65,1.04-.74.26-.05.51-.07.74-.07.53,0,1.26.12,1.7.71.4.54.46,1.36.17,2.3-.22.73-1.12,1.06-1.9,1.06Z"/>
        <path class="cls-43" d="M218.81,561.98c-.73,0-1.58-.29-1.83-.95-.3-.79-.27-1.7.08-2.32.23-.41.57-.65,1.04-.74.26-.05.51-.07.74-.07.53,0,1.26.12,1.7.71.4.54.46,1.36.17,2.3-.22.73-1.12,1.06-1.9,1.06Z"/>
        <path class="cls-43" d="M228.89,561.98c-.73,0-1.58-.29-1.83-.95-.3-.79-.27-1.7.08-2.32.23-.41.57-.65,1.04-.74.26-.05.51-.07.74-.07.53,0,1.26.12,1.7.71.4.54.46,1.36.17,2.3-.22.73-1.12,1.06-1.9,1.06Z"/>
        <path class="cls-43" d="M238.97,561.98c-.73,0-1.58-.29-1.83-.95-.3-.79-.27-1.7.08-2.32.23-.41.57-.65,1.04-.74.26-.05.51-.07.74-.07.53,0,1.26.12,1.7.71.4.54.46,1.36.17,2.3-.22.73-1.12,1.06-1.9,1.06Z"/>
        <path class="cls-43" d="M173.45,567.02c-.73,0-1.58-.29-1.83-.95-.3-.79-.27-1.7.08-2.32.23-.41.57-.65,1.04-.74.26-.05.51-.07.74-.07.53,0,1.26.12,1.7.71.4.54.46,1.36.17,2.3-.22.73-1.12,1.06-1.9,1.06Z"/>
        <path class="cls-43" d="M223.85,546.86c-.73,0-1.58-.29-1.83-.95-.3-.79-.27-1.7.08-2.32.23-.41.57-.65,1.04-.74.26-.05.51-.07.74-.07.53,0,1.26.12,1.7.71.4.54.46,1.36.17,2.3-.22.73-1.12,1.06-1.9,1.06Z"/>
        <path class="cls-43" d="M193.61,567.02c-.73,0-1.58-.29-1.83-.95-.3-.79-.27-1.7.08-2.32.23-.41.57-.65,1.04-.74.26-.05.51-.07.74-.07.53,0,1.26.12,1.7.71.4.54.46,1.36.17,2.3-.22.73-1.12,1.06-1.9,1.06Z"/>
        <path class="cls-43" d="M203.69,567.02c-.73,0-1.58-.29-1.83-.95-.3-.79-.27-1.7.08-2.32.23-.41.57-.65,1.04-.74.26-.05.51-.07.74-.07.53,0,1.26.12,1.7.71.4.54.46,1.36.17,2.3-.22.73-1.12,1.06-1.9,1.06Z"/>
        <path class="cls-43" d="M213.77,567.02c-.73,0-1.58-.29-1.83-.95-.3-.79-.27-1.7.08-2.32.23-.41.57-.65,1.04-.74.26-.05.51-.07.74-.07.53,0,1.26.12,1.7.71.4.54.46,1.36.17,2.3-.22.73-1.12,1.06-1.9,1.06Z"/>
        <path class="cls-43" d="M223.85,567.02c-.73,0-1.58-.29-1.83-.95-.3-.79-.27-1.7.08-2.32.23-.41.57-.65,1.04-.74.26-.05.51-.07.74-.07.53,0,1.26.12,1.7.71.4.54.46,1.36.17,2.3-.22.73-1.12,1.06-1.9,1.06Z"/>
        <path class="cls-43" d="M233.93,567.02c-.73,0-1.58-.29-1.83-.95-.3-.79-.27-1.7.08-2.32.23-.41.57-.65,1.04-.74.26-.05.51-.07.74-.07.53,0,1.26.12,1.7.71.4.54.46,1.36.17,2.3-.22.73-1.12,1.06-1.9,1.06Z"/>
        <path class="cls-43" d="M244.01,567.02c-.73,0-1.58-.29-1.83-.95-.3-.79-.27-1.7.08-2.32.23-.41.57-.65,1.04-.74.26-.05.51-.07.74-.07.53,0,1.26.12,1.7.71.4.54.46,1.36.17,2.3-.22.73-1.12,1.06-1.9,1.06Z"/>
        <path class="cls-43" d="M213.77,435.98c-.73,0-1.58-.29-1.83-.95-.3-.79-.27-1.7.08-2.32.23-.41.57-.65,1.04-.74.26-.05.51-.07.74-.07.53,0,1.26.12,1.7.71.4.54.46,1.36.17,2.3-.22.73-1.12,1.06-1.9,1.06Z"/>
        <path class="cls-43" d="M178.49,572.06c-.73,0-1.58-.29-1.83-.95-.3-.79-.27-1.7.08-2.32.23-.41.57-.65,1.04-.74.26-.05.51-.07.74-.07.53,0,1.26.12,1.7.71.4.54.46,1.36.17,2.3-.22.73-1.12,1.06-1.9,1.06Z"/>
        <path class="cls-43" d="M188.57,572.06c-.73,0-1.58-.29-1.83-.95-.3-.79-.27-1.7.08-2.32.23-.41.57-.65,1.04-.74.26-.05.51-.07.74-.07.53,0,1.26.12,1.7.71.4.54.46,1.36.17,2.3-.22.73-1.12,1.06-1.9,1.06Z"/>
        <path class="cls-43" d="M198.65,572.06c-.73,0-1.58-.29-1.83-.95-.3-.79-.27-1.7.08-2.32.23-.41.57-.65,1.04-.74.26-.05.51-.07.74-.07.53,0,1.26.12,1.7.71.4.54.46,1.36.17,2.3-.22.73-1.12,1.06-1.9,1.06Z"/>
        <path class="cls-43" d="M208.73,572.06c-.73,0-1.58-.29-1.83-.95-.3-.79-.27-1.7.08-2.32.23-.41.57-.65,1.04-.74.26-.05.51-.07.74-.07.53,0,1.26.12,1.7.71.4.54.46,1.36.17,2.3-.22.73-1.12,1.06-1.9,1.06Z"/>
        <path class="cls-43" d="M218.81,572.06c-.73,0-1.58-.29-1.83-.95-.3-.79-.27-1.7.08-2.32.23-.41.57-.65,1.04-.74.26-.05.51-.07.74-.07.53,0,1.26.12,1.7.71.4.54.46,1.36.17,2.3-.22.73-1.12,1.06-1.9,1.06Z"/>
        <path class="cls-43" d="M228.89,572.06c-.73,0-1.58-.29-1.83-.95-.3-.79-.27-1.7.08-2.32.23-.41.57-.65,1.04-.74.26-.05.51-.07.74-.07.53,0,1.26.12,1.7.71.4.54.46,1.36.17,2.3-.22.73-1.12,1.06-1.9,1.06Z"/>
        <path class="cls-43" d="M238.97,572.06c-.73,0-1.58-.29-1.83-.95-.3-.79-.27-1.7.08-2.32.23-.41.57-.65,1.04-.74.26-.05.51-.07.74-.07.53,0,1.26.12,1.7.71.4.54.46,1.36.17,2.3-.22.73-1.12,1.06-1.9,1.06Z"/>
        <path class="cls-43" d="M183.53,577.1c-.73,0-1.58-.29-1.83-.95-.3-.79-.27-1.7.08-2.32.23-.41.57-.65,1.04-.74.26-.05.51-.07.74-.07.53,0,1.26.12,1.7.71.4.54.46,1.36.17,2.3-.22.73-1.12,1.06-1.9,1.06Z"/>
        <path class="cls-43" d="M193.61,577.1c-.73,0-1.58-.29-1.83-.95-.3-.79-.27-1.7.08-2.32.23-.41.57-.65,1.04-.74.26-.05.51-.07.74-.07.53,0,1.26.12,1.7.71.4.54.46,1.36.17,2.3-.22.73-1.12,1.06-1.9,1.06Z"/>
        <path class="cls-43" d="M203.69,577.1c-.73,0-1.58-.29-1.83-.95-.3-.79-.27-1.7.08-2.32.23-.41.57-.65,1.04-.74.26-.05.51-.07.74-.07.53,0,1.26.12,1.7.71.4.54.46,1.36.17,2.3-.22.73-1.12,1.06-1.9,1.06Z"/>
        <path class="cls-43" d="M213.77,577.1c-.73,0-1.58-.29-1.83-.95-.3-.79-.27-1.7.08-2.32.23-.41.57-.65,1.04-.74.26-.05.51-.07.74-.07.53,0,1.26.12,1.7.71.4.54.46,1.36.17,2.3-.22.73-1.12,1.06-1.9,1.06Z"/>
        <path class="cls-43" d="M223.85,577.1c-.73,0-1.58-.29-1.83-.95-.3-.79-.27-1.7.08-2.32.23-.41.57-.65,1.04-.74.26-.05.51-.07.74-.07.53,0,1.26.12,1.7.71.4.54.46,1.36.17,2.3-.22.73-1.12,1.06-1.9,1.06Z"/>
        <path class="cls-43" d="M233.93,577.1c-.73,0-1.58-.29-1.83-.95-.3-.79-.27-1.7.08-2.32.23-.41.57-.65,1.04-.74.26-.05.51-.07.74-.07.53,0,1.26.12,1.7.71.4.54.46,1.36.17,2.3-.22.73-1.12,1.06-1.9,1.06Z"/>
        <path class="cls-43" d="M188.57,582.14c-.73,0-1.58-.29-1.83-.95-.3-.79-.27-1.7.08-2.32.23-.41.57-.65,1.04-.74.26-.05.51-.07.74-.07.53,0,1.26.12,1.7.71.4.54.46,1.36.17,2.3-.22.73-1.12,1.06-1.9,1.06Z"/>
        <path class="cls-43" d="M198.65,582.14c-.73,0-1.58-.29-1.83-.95-.3-.79-.27-1.7.08-2.32.23-.41.57-.65,1.04-.74.26-.05.51-.07.74-.07.53,0,1.26.12,1.7.71.4.54.46,1.36.17,2.3-.22.73-1.12,1.06-1.9,1.06Z"/>
        <path class="cls-43" d="M208.73,582.14c-.73,0-1.58-.29-1.83-.95-.3-.79-.27-1.7.08-2.32.23-.41.57-.65,1.04-.74.26-.05.51-.07.74-.07.53,0,1.26.12,1.7.71.4.54.46,1.36.17,2.3-.22.73-1.12,1.06-1.9,1.06Z"/>
        <path class="cls-43" d="M218.81,582.14c-.73,0-1.58-.29-1.83-.95-.3-.79-.27-1.7.08-2.32.23-.41.57-.65,1.04-.74.26-.05.51-.07.74-.07.53,0,1.26.12,1.7.71.4.54.46,1.36.17,2.3-.22.73-1.12,1.06-1.9,1.06Z"/>
        <path class="cls-43" d="M228.89,582.14c-.73,0-1.58-.29-1.83-.95-.3-.79-.27-1.7.08-2.32.23-.41.57-.65,1.04-.74.26-.05.51-.07.74-.07.53,0,1.26.12,1.7.71.4.54.46,1.36.17,2.3-.22.73-1.12,1.06-1.9,1.06Z"/>
        <path class="cls-43" d="M203.69,587.18c-.73,0-1.58-.29-1.83-.95-.3-.79-.27-1.7.08-2.32.23-.41.57-.65,1.04-.74.26-.05.51-.07.74-.07.53,0,1.26.12,1.7.71.4.54.46,1.36.17,2.3-.22.73-1.12,1.06-1.9,1.06Z"/>
        <path class="cls-43" d="M213.77,587.18c-.73,0-1.58-.29-1.83-.95-.3-.79-.27-1.7.08-2.32.23-.41.57-.65,1.04-.74.26-.05.51-.07.74-.07.53,0,1.26.12,1.7.71.4.54.46,1.36.17,2.3-.22.73-1.12,1.06-1.9,1.06Z"/>
        <path class="cls-43" d="M223.85,587.18c-.73,0-1.58-.29-1.83-.95-.3-.79-.27-1.7.08-2.32.23-.41.57-.65,1.04-.74.26-.05.51-.07.74-.07.53,0,1.26.12,1.7.71.4.54.46,1.36.17,2.3-.22.73-1.12,1.06-1.9,1.06Z"/>
        <path class="cls-43" d="M183.53,567.02c-.73,0-1.58-.29-1.83-.95-.3-.79-.27-1.7.08-2.32.23-.41.57-.65,1.04-.74.26-.05.51-.07.74-.07.53,0,1.26.12,1.7.71.4.54.46,1.36.17,2.3-.22.73-1.12,1.06-1.9,1.06Z"/>
      </g>
      <g>
        <g>
          <path class="cls-36" d="M291.64,975.57h53.39v13.53c0,4.58-3.72,8.3-8.3,8.3h-36.79c-4.58,0-8.3-3.72-8.3-8.3v-13.53h0Z"/>
          <path class="cls-36" d="M78.67,975.57h53.39v13.53c0,4.58-3.72,8.3-8.3,8.3h-36.79c-4.58,0-8.3-3.72-8.3-8.3v-13.53h0Z"/>
          <g>
            <path class="cls-21" d="M88.17,973.77h34.38v17.27c0,3.51-2.85,6.36-6.36,6.36h-21.65c-3.51,0-6.36-2.85-6.36-6.36v-17.27h0Z"/>
            <line class="cls-20" x1="88.17" y1="978.06" x2="122.55" y2="978.06"/>
            <line class="cls-20" x1="88.17" y1="992.04" x2="122.55" y2="992.04"/>
            <line class="cls-20" x1="88.17" y1="985.05" x2="122.55" y2="985.05"/>
          </g>
          <g>
            <path class="cls-21" d="M301.14,975.57h34.38v15.72c0,3.38-2.74,6.12-6.12,6.12h-22.15c-3.38,0-6.12-2.74-6.12-6.12v-15.72h0Z"/>
            <line class="cls-20" x1="301.14" y1="978.06" x2="335.52" y2="978.06"/>
            <line class="cls-20" x1="301.14" y1="992.04" x2="335.52" y2="992.04"/>
            <line class="cls-20" x1="301.14" y1="985.05" x2="335.52" y2="985.05"/>
          </g>
          <path class="cls-36" d="M15.22,975.57h53.39v27.64c0,6.1-4.95,11.05-11.05,11.05h-31.29c-6.1,0-11.05-4.95-11.05-11.05v-27.64h0Z"/>
          <path class="cls-36" d="M352.87,975.57h53.39v27.64c0,6.1-4.95,11.05-11.05,11.05h-31.29c-6.1,0-11.05-4.95-11.05-11.05v-27.64h0Z"/>
          <g>
            <path class="cls-21" d="M24.73,975.57h34.38v30.55c0,4.49-3.65,8.14-8.14,8.14h-18.09c-4.49,0-8.14-3.65-8.14-8.14v-30.55h0Z"/>
            <line class="cls-20" x1="24.73" y1="980.93" x2="59.1" y2="980.93"/>
            <line class="cls-20" x1="24.73" y1="994.92" x2="59.1" y2="994.92"/>
            <line class="cls-20" x1="24.73" y1="1008.9" x2="59.1" y2="1008.9"/>
            <line class="cls-20" x1="24.73" y1="1001.91" x2="59.1" y2="1001.91"/>
            <line class="cls-20" x1="24.73" y1="987.92" x2="59.1" y2="987.92"/>
          </g>
          <g>
            <path class="cls-21" d="M362.37,975.57h34.38v30.55c0,4.49-3.65,8.14-8.14,8.14h-18.09c-4.49,0-8.14-3.65-8.14-8.14v-30.55h0Z"/>
            <line class="cls-20" x1="362.37" y1="980.93" x2="396.75" y2="980.93"/>
            <line class="cls-20" x1="362.37" y1="994.92" x2="396.75" y2="994.92"/>
            <line class="cls-20" x1="362.37" y1="1008.9" x2="396.75" y2="1008.9"/>
            <line class="cls-20" x1="362.37" y1="1001.91" x2="396.75" y2="1001.91"/>
            <line class="cls-20" x1="362.37" y1="987.92" x2="396.75" y2="987.92"/>
          </g>
        </g>
        <rect class="cls-21" x="154.66" y="798.39" width="112.15" height="46.28"/>
        <g>
          <path class="cls-36" d="M421.48,859v99.04c0,9.68-7.84,17.52-17.51,17.52H17.51c-9.67,0-17.51-7.84-17.51-17.52v-99.04c2.59-4.81,7.28-12.19,15.22-19.09v45.88c0,12.39,10.04,22.43,22.43,22.43h346.18c12.39,0,22.43-10.04,22.43-22.43v-45.88c-.15-.46-.3-.92-.46-1.37,8.77,7.55,13.45,15.83,15.68,20.46Z"/>
          <path class="cls-18" d="M421.48,859v99.04c0,9.68-7.84,17.52-17.51,17.52H17.51c-9.67,0-17.51-7.84-17.51-17.52v-99.04c2.59-4.81,7.28-12.19,15.22-19.09v45.88c0,12.39,10.04,22.43,22.43,22.43h346.18c12.39,0,22.43-10.04,22.43-22.43v-46.85c8.48,7.44,13.03,15.5,15.22,20.05Z"/>
          <path class="cls-11" d="M406.26,839.92v45.88c0,12.39-10.04,22.43-22.43,22.43H37.65c-12.39,0-22.43-10.04-22.43-22.43v-45.88c4.83-15.4,18.94-25.86,34.41-25.86,9.15,0,17.78,3.67,24.29,9.78,5.71,5.34,9.79,12.55,11.25,20.84h251.14c1.46-8.29,5.54-15.5,11.25-20.84,6.52-6.11,15.14-9.78,24.29-9.78,15.01,0,28.72,9.85,33.95,24.49.16.45.31.91.46,1.37Z"/>
        </g>
        <path class="cls-39" d="M266.81,844.67c-6.7,13.1-13.39,26.2-20.09,39.3h-71.98c-6.7-13.1-13.39-26.2-20.09-39.3h112.15Z"/>
        <rect class="cls-25" x="154.66" y="833.13" width="112.15" height="11.54"/>
      </g>
    </g>
  </g>
</svg>