<?xml version="1.0" encoding="UTF-8"?>
<svg id="Camada_2" data-name="Camada 2" xmlns="http://www.w3.org/2000/svg" viewBox="0 0 1033.84 269.65">
  <defs>
    <style>
      .cls-1 {
        fill: #ed692a;
      }
      .cls-2 {
        fill: #ffde00;
      }
    </style>
  </defs>
  <g id="Camada_1-2" data-name="Camada 1">
    <g>
      <polygon class="cls-1" points="567.61 266.3 522.66 266.45 476.96 145.13 476.66 266.41 421.71 266.4 421.71 2.76 466.1 2.67 512.44 124 512.66 2.71 567.61 2.73 567.61 266.3"/>
      <path class="cls-2" d="M879.4,2.72l-.11,164.17c-1.77,18.77-3.35,36.21-9.81,53.57-10.62,28.54-29.49,48.26-61.01,49.11-27.52.74-46.72-11.86-59.57-35.61-9.91-18.32-12.69-38.08-15.33-59.1l-.1-172.13h54.98s.04,171.12.04,171.12c2.35,13.39,5.16,29.36,17.45,29.78,13.04.45,16.05-15.81,18.47-29.78l.04-171.11h54.96Z"/>
      <path class="cls-1" d="M652.02,269.64c-47.88.72-70.56-37.52-76.68-81.22l45.12-15.82c3.12,19.04,13.23,35.5,33.11,33.81,6.61.49,13.58-.83,18.64-5.35,5.22-4.67,6.18-13.61,2.3-19.7-6.31-9.89-30.32-20.66-43.81-27.98-10.5-5.69-20.14-12.16-29.45-19.42-4.8-3.75-8.62-8-12.51-12.45-12.12-13.83-17.71-30.42-17.32-48.92.36-16.81,3.65-33.48,14.13-46.99l9.4-9.48c12.31-10,27.35-14.46,43-15.98l18.34-.12c43.45,4.44,63.21,39.48,68.59,80.96l-46.17,15.86c-.58-10.71-3.77-20.15-10.27-27.92-6.01-5.32-12.82-8.32-20.94-7.2-6.78-.27-14.24.87-19.67,5.32-3.49,2.86-5.73,8.89-5.17,13.62,2.61,22.2,82.87,34.26,101.73,88.86,6.86,19.85,5.45,42.24-2.25,61.42-6.43,16.02-19.25,27.42-34.86,33.16-11.51,4.23-22.56,5.37-35.26,5.56Z"/>
      <polygon class="cls-1" points="279.82 164.51 209.86 164.54 209.86 204.48 279.82 204.47 279.81 266.41 154.89 266.39 154.89 2.73 279.81 2.72 279.82 64.65 209.86 64.65 209.86 103.61 279.81 103.6 279.82 164.51"/>
      <polygon class="cls-1" points="412.72 164.51 342.76 164.54 342.76 204.48 412.72 204.47 412.72 266.41 287.8 266.39 287.8 2.73 412.72 2.72 412.72 64.65 342.77 64.65 342.76 103.61 412.72 103.6 412.72 164.51"/>
      <path class="cls-2" d="M1023.39,139.21c-10.72,19.7-29.21,31.77-51.43,33.89l-28.62.44v92.87s-54.96-.01-54.96-.01V2.68s81.32.53,81.32.53c22.21.14,41.25,12.14,52.15,30.88,7.82,13.7,10.69,28.55,11.98,44.11v20.84c-1.26,14.03-3.42,27.27-10.45,40.18ZM985.26,95.8l-.1-14.82c-2.25-8.04-7.33-15.66-16.46-15.84l-25.36-.5v46.96s26.65-.05,26.65-.05c8.39-1.86,13.61-6.98,15.26-15.76Z"/>
      <polygon class="cls-1" points="100.94 266.35 45.97 266.44 45.98 68.66 0 68.63 0 2.72 146.91 2.72 146.9 68.64 100.93 68.66 100.94 266.35"/>
    </g>
  </g>
</svg>
