<?xml version="1.0" encoding="UTF-8"?>
<svg id="Camada_2" data-name="Camada 2" xmlns="http://www.w3.org/2000/svg" xmlns:xlink="http://www.w3.org/1999/xlink" viewBox="0 0 382.72 245.69">
  <defs>
    <style>
      .cls-1 {
        fill: #b5aed6;
      }

      .cls-2 {
        fill: #9f90c5;
      }

      .cls-3 {
        fill: #3e3d8c;
      }

      .cls-4, .cls-5, .cls-6 {
        fill: #fff;
      }

      .cls-7 {
        fill: #484949;
      }

      .cls-5 {
        stroke: url(#Gradiente_sem_nome_2);
      }

      .cls-5, .cls-6 {
        stroke-width: 3px;
      }

      .cls-5, .cls-6, .cls-8 {
        stroke-miterlimit: 10;
      }

      .cls-6 {
        stroke: url(#Gradiente_sem_nome_2-3);
      }

      .cls-9 {
        fill: url(#Gradiente_sem_nome_2-2);
      }

      .cls-10 {
        fill: url(#Gradiente_sem_nome_2-4);
      }

      .cls-11 {
        fill: #2d307a;
      }

      .cls-8 {
        fill: none;
        stroke: #3e3d8c;
        stroke-linecap: round;
        stroke-width: 7px;
      }

      .cls-12 {
        fill: #242426;
      }

      .cls-13 {
        fill: #e4ac79;
      }
    </style>
    <linearGradient id="Gradiente_sem_nome_2" data-name="Gradiente sem nome 2" x1="71.84" y1="115.78" x2="164.25" y2="115.78" gradientUnits="userSpaceOnUse">
      <stop offset="0" stop-color="#414495"/>
      <stop offset="1" stop-color="#6a64ab"/>
    </linearGradient>
    <linearGradient id="Gradiente_sem_nome_2-2" data-name="Gradiente sem nome 2" x1="118.04" y1="84.17" x2="118.04" y2="147.39" xlink:href="#Gradiente_sem_nome_2"/>
    <linearGradient id="Gradiente_sem_nome_2-3" data-name="Gradiente sem nome 2" x1="218.47" x2="310.88" xlink:href="#Gradiente_sem_nome_2"/>
    <linearGradient id="Gradiente_sem_nome_2-4" data-name="Gradiente sem nome 2" x1="264.68" y1="84.17" x2="264.68" y2="147.39" xlink:href="#Gradiente_sem_nome_2"/>
  </defs>
  <g id="Camada_1-2" data-name="Camada 1">
    <rect class="cls-11" x="32.59" y="25" width="317.54" height="195.69" rx="15" ry="15"/>
    <path class="cls-12" d="M377.72,88.41v68.86c0,5.69-3.05,10.66-7.59,13.38v55.04c0,4.14-1.68,7.89-4.4,10.6-.51.51-1.05.98-1.63,1.42-1.15.86-2.44,1.56-3.81,2.07-.46.17-.93.31-1.41.44-1.2.31-2.46.47-3.75.47H27.59c-1.29,0-2.55-.16-3.75-.47-.48-.13-.95-.27-1.41-.44-1.37-.51-2.66-1.21-3.81-2.07-.58-.44-1.12-.91-1.63-1.42-2.72-2.71-4.4-6.46-4.4-10.6v-55.03c-4.54-2.72-7.59-7.69-7.59-13.38v-68.86c0-5.69,3.05-10.66,7.59-13.38V20c0-8.29,6.72-15,15-15h327.54c8.28,0,15,6.71,15,15v55.03c4.54,2.72,7.59,7.69,7.59,13.38Z"/>
    <path class="cls-7" d="M27.59,245.69c-1.7,0-3.38-.21-5-.63-.77-.21-1.35-.39-1.89-.59-1.83-.68-3.53-1.61-5.07-2.76-.79-.6-1.51-1.23-2.17-1.89-3.78-3.76-5.86-8.79-5.86-14.13v-52.45c-4.74-3.88-7.59-9.76-7.59-15.96v-68.86c0-6.2,2.85-12.08,7.59-15.96V20C7.59,8.97,16.56,0,27.59,0h327.54c11.03,0,20,8.97,20,20v52.45c4.74,3.88,7.59,9.76,7.59,15.96v68.86c0,6.2-2.85,12.08-7.59,15.96v52.46c0,5.35-2.08,10.37-5.87,14.14-.67.67-1.37,1.28-2.14,1.86-1.56,1.17-3.26,2.09-5.09,2.77-.56.21-1.14.39-1.85.58-1.67.43-3.35.64-5.05.64H27.59Z"/>
    <path class="cls-12" d="M377.72,88.41v68.86c0,5.69-3.05,10.66-7.59,13.38v55.04c0,4.14-1.68,7.89-4.4,10.6-.51.51-1.05.98-1.63,1.42-1.15.86-2.44,1.56-3.81,2.07-.46.17-.93.31-1.41.44-1.2.31-2.46.47-3.75.47H27.59c-1.29,0-2.55-.16-3.75-.47-.48-.13-.95-.27-1.41-.44-1.37-.51-2.66-1.21-3.81-2.07-.58-.44-1.12-.91-1.63-1.42-2.72-2.71-4.4-6.46-4.4-10.6v-55.03c-4.54-2.72-7.59-7.69-7.59-13.38v-68.86c0-5.69,3.05-10.66,7.59-13.38V20c0-8.29,6.72-15,15-15h327.54c8.28,0,15,6.71,15,15v55.03c4.54,2.72,7.59,7.69,7.59,13.38Z"/>
    <path class="cls-12" d="M377.72,88.41v68.86c0,5.69-3.05,10.66-7.59,13.38v55.04c0,4.14-1.68,7.89-4.4,10.6-.51.51-1.05.98-1.63,1.42-1.15.86-2.44,1.56-3.81,2.07-.46.17-.93.31-1.41.44-1.2.31-2.46.47-3.75.47H27.59c-1.29,0-2.55-.16-3.75-.47-.48-.13-.95-.27-1.41-.44-1.37-.51-2.66-1.21-3.81-2.07-.58-.44-1.12-.91-1.63-1.42-2.72-2.71-4.4-6.46-4.4-10.6v-55.03c-4.54-2.72-7.59-7.69-7.59-13.38v-68.86c0-5.69,3.05-10.66,7.59-13.38V20c0-8.29,6.72-15,15-15h327.54c8.28,0,15,6.71,15,15v55.03c4.54,2.72,7.59,7.69,7.59,13.38Z"/>
    <rect class="cls-4" x="32.59" y="25" width="317.54" height="195.69" rx="5" ry="5"/>
    <g>
      <g>
        <g>
          <path class="cls-8" d="M74.95,70.54c4.58-4.03,14.46-11.64,29.27-15.03,16.73-3.84,30.39-.16,36.2,1.78"/>
          <path class="cls-8" d="M242.68,57.52c4.98-1.97,18.27-6.46,34.9-2.9,16.23,3.48,26.38,12.65,30.18,16.45"/>
        </g>
        <g>
          <circle class="cls-5" cx="118.04" cy="115.78" r="44.7"/>
          <g>
            <circle class="cls-9" cx="118.04" cy="115.78" r="31.61"/>
            <g>
              <path class="cls-4" d="M131.69,119.31s-.07-.02-.09-.04l-10-12.5s-.04-.11,0-.15l10-12.5s.06-.04.09-.04h0s.07.02.09.05l10,12.73s.03.11,0,.15l-10,12.27s-.06.04-.09.04h0Z"/>
              <path class="cls-4" d="M131.69,94.19c3.33,4.24,6.67,8.48,10,12.73-3.33,4.09-6.67,8.18-10,12.27-3.33-4.17-6.67-8.33-10-12.5,3.33-4.17,6.67-8.33,10-12.5M131.69,93.95c-.07,0-.14.03-.19.09l-5.42,6.77-4.58,5.73c-.07.09-.07.21,0,.3l4.58,5.73,5.42,6.77c.05.06.11.09.19.09h0c.07,0,.14-.03.19-.09l2.52-3.09,7.48-9.18c.07-.09.07-.21,0-.3l-5.99-7.62-4.01-5.11c-.05-.06-.11-.09-.19-.09h0Z"/>
            </g>
            <path class="cls-1" d="M107.5,90.7c-2.13,2.67-4.26,5.33-6.4,8,2.13,2.67,4.26,5.33,6.4,8,2.13-2.62,4.26-5.23,6.4-7.85-2.13-2.71-4.26-5.43-6.4-8.14Z"/>
            <path class="cls-2" d="M93.85,111.22c3.77,10.21,13.38,17.14,24.19,17.47,11.04.33,21.22-6.29,25.44-16.57,1.06,2.79,2.35,7.51,1.29,12.93-2.35,11.93-15.13,22.02-28.77,21.05-12.66-.91-24.19-11.21-25.03-22.83-.37-5.04,1.36-9.29,2.88-12.04Z"/>
            <path class="cls-13" d="M118.04,140.34c6.17.01,10.11-4.15,10.51-3.59.47.65-4.16,7.4-10.59,7.36-6.38-.04-10.9-6.76-10.43-7.41.41-.56,4.33,3.63,10.51,3.64Z"/>
          </g>
        </g>
        <g>
          <circle class="cls-6" cx="264.68" cy="115.78" r="44.7"/>
          <g>
            <circle class="cls-10" cx="264.68" cy="115.78" r="31.61"/>
            <g>
              <path class="cls-4" d="M278.33,119.31s-.07-.02-.09-.04l-10-12.5s-.04-.11,0-.15l10-12.5s.06-.04.09-.04h0s.07.02.09.05l10,12.73s.03.11,0,.15l-10,12.27s-.06.04-.09.04h0Z"/>
              <path class="cls-4" d="M278.33,94.19c3.33,4.24,6.67,8.48,10,12.73-3.33,4.09-6.67,8.18-10,12.27-3.33-4.17-6.67-8.33-10-12.5,3.33-4.17,6.67-8.33,10-12.5M278.33,93.95c-.07,0-.14.03-.19.09l-4.81,6.02-5.19,6.48c-.07.09-.07.21,0,.3l5.19,6.48,4.81,6.02c.05.06.11.09.19.09h0c.07,0,.14-.03.19-.09l3.63-4.46,6.37-7.81c.07-.09.07-.21,0-.3l-4.62-5.88-5.38-6.85c-.05-.06-.11-.09-.19-.09h0Z"/>
            </g>
            <path class="cls-1" d="M254.14,90.7c-2.13,2.67-4.26,5.33-6.4,8,2.13,2.67,4.26,5.33,6.4,8,2.13-2.62,4.26-5.23,6.4-7.85-2.13-2.71-4.26-5.43-6.4-8.14Z"/>
            <path class="cls-2" d="M240.48,111.22c3.77,10.21,13.38,17.14,24.19,17.47,11.04.33,21.22-6.29,25.44-16.57,1.06,2.79,2.35,7.51,1.29,12.93-2.35,11.93-15.13,22.02-28.77,21.05-12.66-.91-24.19-11.21-25.03-22.83-.37-5.04,1.36-9.29,2.88-12.04Z"/>
            <path class="cls-13" d="M264.68,140.34c6.17.01,10.11-4.15,10.51-3.59.47.65-4.16,7.4-10.59,7.36-6.38-.04-10.9-6.76-10.43-7.41.41-.56,4.33,3.63,10.51,3.64Z"/>
          </g>
        </g>
      </g>
      <path class="cls-3" d="M223.54,184.96c-18.2,14.32-46.12,14.19-64.25-.17-.69-.54-.81-1.55-.27-2.24.46-.59,1.26-.76,1.91-.47,4.93,2.19,9.91,3.99,15,5.21,10.12,2.44,20.72,2.36,30.83-.13,5.07-1.26,10.03-3.07,14.95-5.26,1.9-.85,3.49,1.77,1.84,3.06h0Z"/>
    </g>
  </g>
</svg>