<?xml version="1.0" encoding="UTF-8"?>
<svg id="Camada_2" data-name="Camada 2" xmlns="http://www.w3.org/2000/svg" viewBox="0 0 382.72 245.69">
  <defs>
    <style>
      .cls-1 {
        fill: #fff;
      }

      .cls-2 {
        fill: #484949;
      }

      .cls-3 {
        fill: #2d307a;
      }

      .cls-4 {
        fill: #242426;
      }
    </style>
  </defs>
  <g id="Camada_1-2" data-name="Camada 1">
    <rect class="cls-3" x="32.59" y="25" width="317.54" height="195.69" rx="15" ry="15"/>
    <path class="cls-4" d="M377.72,88.41v68.86c0,5.69-3.05,10.66-7.59,13.38v55.04c0,4.14-1.68,7.89-4.4,10.6-.51.51-1.05.98-1.63,1.42-1.15.86-2.44,1.56-3.81,2.07-.46.17-.93.31-1.41.44-1.2.31-2.46.47-3.75.47H27.59c-1.29,0-2.55-.16-3.75-.47-.48-.13-.95-.27-1.41-.44-1.37-.51-2.66-1.21-3.81-2.07-.58-.44-1.12-.91-1.63-1.42-2.72-2.71-4.4-6.46-4.4-10.6v-55.03c-4.54-2.72-7.59-7.69-7.59-13.38v-68.86c0-5.69,3.05-10.66,7.59-13.38V20c0-8.29,6.72-15,15-15h327.54c8.28,0,15,6.71,15,15v55.03c4.54,2.72,7.59,7.69,7.59,13.38Z"/>
    <path class="cls-2" d="M27.59,245.69c-1.7,0-3.38-.21-5-.63-.77-.21-1.35-.39-1.89-.59-1.83-.68-3.53-1.61-5.07-2.76-.79-.6-1.51-1.23-2.17-1.89-3.78-3.76-5.86-8.79-5.86-14.13v-52.45c-4.74-3.88-7.59-9.76-7.59-15.96v-68.86c0-6.2,2.85-12.08,7.59-15.96V20C7.59,8.97,16.56,0,27.59,0h327.54c11.03,0,20,8.97,20,20v52.45c4.74,3.88,7.59,9.76,7.59,15.96v68.86c0,6.2-2.85,12.08-7.59,15.96v52.46c0,5.35-2.08,10.37-5.87,14.14-.67.67-1.37,1.28-2.14,1.86-1.56,1.17-3.26,2.09-5.09,2.77-.56.21-1.14.39-1.85.58-1.67.43-3.35.64-5.05.64H27.59Z"/>
    <path class="cls-4" d="M377.72,88.41v68.86c0,5.69-3.05,10.66-7.59,13.38v55.04c0,4.14-1.68,7.89-4.4,10.6-.51.51-1.05.98-1.63,1.42-1.15.86-2.44,1.56-3.81,2.07-.46.17-.93.31-1.41.44-1.2.31-2.46.47-3.75.47H27.59c-1.29,0-2.55-.16-3.75-.47-.48-.13-.95-.27-1.41-.44-1.37-.51-2.66-1.21-3.81-2.07-.58-.44-1.12-.91-1.63-1.42-2.72-2.71-4.4-6.46-4.4-10.6v-55.03c-4.54-2.72-7.59-7.69-7.59-13.38v-68.86c0-5.69,3.05-10.66,7.59-13.38V20c0-8.29,6.72-15,15-15h327.54c8.28,0,15,6.71,15,15v55.03c4.54,2.72,7.59,7.69,7.59,13.38Z"/>
    <path class="cls-4" d="M377.72,88.41v68.86c0,5.69-3.05,10.66-7.59,13.38v55.04c0,4.14-1.68,7.89-4.4,10.6-.51.51-1.05.98-1.63,1.42-1.15.86-2.44,1.56-3.81,2.07-.46.17-.93.31-1.41.44-1.2.31-2.46.47-3.75.47H27.59c-1.29,0-2.55-.16-3.75-.47-.48-.13-.95-.27-1.41-.44-1.37-.51-2.66-1.21-3.81-2.07-.58-.44-1.12-.91-1.63-1.42-2.72-2.71-4.4-6.46-4.4-10.6v-55.03c-4.54-2.72-7.59-7.69-7.59-13.38v-68.86c0-5.69,3.05-10.66,7.59-13.38V20c0-8.29,6.72-15,15-15h327.54c8.28,0,15,6.71,15,15v55.03c4.54,2.72,7.59,7.69,7.59,13.38Z"/>
    <rect class="cls-1" x="32.59" y="25" width="317.54" height="195.69" rx="5" ry="5"/>
  </g>
</svg>